<mxfile host="app.diagrams.net" agent="Mozilla/5.0 (Windows NT 10.0; Win64; x64) AppleWebKit/537.36 (KHTML, like Gecko) Chrome/136.0.0.0 Safari/537.36" version="27.0.1">
  <diagram name="PÃ¡gina-1" id="XDDH4wGTWGE1m848OGDj">
    <mxGraphModel dx="925" dy="491" grid="1" gridSize="10" guides="1" tooltips="1" connect="1" arrows="1" fold="1" page="1" pageScale="1" pageWidth="827" pageHeight="1169" math="0" shadow="0">
      <root>
        <mxCell id="0" />
        <mxCell id="1" parent="0" />
        <mxCell id="brUmei9bkIKx1N2It68e-27" value="" style="rounded=1;whiteSpace=wrap;html=1;fillColor=none;" vertex="1" parent="1">
          <mxGeometry x="770" y="150" width="100" height="212" as="geometry" />
        </mxCell>
        <mxCell id="brUmei9bkIKx1N2It68e-1" value="" style="rounded=1;whiteSpace=wrap;html=1;fillColor=none;" vertex="1" parent="1">
          <mxGeometry x="314" y="100" width="370" height="321" as="geometry" />
        </mxCell>
        <mxCell id="brUmei9bkIKx1N2It68e-2" value="&lt;font size=&quot;1&quot;&gt;ENVIRONMENT&lt;/font&gt;" style="text;html=1;align=center;verticalAlign=middle;whiteSpace=wrap;rounded=0;" vertex="1" parent="1">
          <mxGeometry x="449" y="110" width="100" height="30" as="geometry" />
        </mxCell>
        <mxCell id="brUmei9bkIKx1N2It68e-3" value="" style="shape=image;verticalLabelPosition=bottom;labelBackgroundColor=default;verticalAlign=top;aspect=fixed;imageAspect=0;image=data:image/png,iVBORw0KGgoAAAANSUhEUgAAATAAAACmCAMAAABqbSMrAAABPlBMVEX///9ChfT7vAXqQzU0qFP7uQBXW2FdYWZUWF47gvRMjPX5/P8+rVxTV11ZXWP4/forpk6srrCJjI92eX3i4uMzqkVCg/m3ubrqPi/r7OyBhYgzfvMqp1Xb3N1xdXnNzs9jZ2zwQCf8wgDpLxvpNiXpODf/+u2mqKrp6er4xMCAqvf5z8vT4fz+8dPw9f7zvAZMqk2Zm57ExceSlZj2rafykYrvcGZdlfb1kxuRtfjD1vvG2Pv8zFf7wiapxfmXufj8z2NFSlD97OvwfXXznJftW1D3u7f0pJ7uZlzNQlrxh4DRUWTVT1z+8vHsUUT73druLg9yofbuXi7xcyfzgiLg6v3vZyr6sA793I/2lxr/+OT4oxX81HT1jy795q7/68AgdvP93pb802/8xjx4woy+4Mbl8+hMpz1XtW+p17T87W7pAAAKTklEQVR4nO2cjX/TNhqAnfQiKQ1WcRzm2rnYHglN2gC7OFBGB/ST0tsBHWxs3MbguAM2/v9/4CT5I2kiJXboxT5Fz28/RvwV+emrV69kF01TKBQKhUKhUCgUC3DUv3P3eJdwfPdO/yjv1hSbZ/2T3bV2p7MZ0em013ZPtp/l3a5icnR61iGu1iYg1jpnpyrSJukfb07LGknbPO7n3cJCcfq4LbQVOWs/Ps27lYVh+7E4uMbD7PF23i0tBEe786JrFGW7KpdpT9LqCpU9ybu9OXN01kmvi9I5W+kg629mCK8oyDZXOJPdaWfVRVndbnmykK+1r/9+P++W58P3C/p6Wmru5N32PLibMd3Hvv5RKq2ksUX749MSpbmfd/uXzWL5nsRXtRQae5T3HSyX/qK+SjHNm3nfwzJ5tpa5/mK+npbGuJ33XSyR3Zm+2Mphe3pxLOmPjOqLvO9ieZy2xbI6nbXdk9Ptfn/79GR3bVzaxfhapTT2TFhQbLafPzkfP/T8SbJSNumLxNiqdMrvBR1ys33GWVfth8s/Y/k+EbYi1di5IMA6zwXL0P3nHU58rc5IecYPsPZd8SknPzytcoRV7y2v1flxzs34c1Zt+iWesNUIseOxALsRQn2dzz7rFdfYKpQWR+3Y1drLH3/6lvD7Tz++fD53HfX2Os9Y89Uy2pwrJzTl31j7+dtfytdHlB+8vjXnxFdcYfIvjVFdL/9ZIY4uUqk8fP3rzDO/a/LSWG1J7c6LfufGz79N2YqdHcxUdp9jrPndslqeE3e//o1vK1L2Zkt8bo2Txqqy98nfZ+hiyspvxSdzO+Xy2p4DW/+ZrYspO9gQnn+PE2IvJJ5R3iIBlMLYQ2G33OOEWLUkbfX6No0uhrDE4I2TpebeMu9ieaT3JTbGGyhlNfYug69yWVBf3OQKk7K4uJXJV7nMz2M1ri8Zp0hbD7P5qjzgX+cFd9WiVF2XreJ/kC3AhCPlfb4w6dYtsiT8Wb60R/wkJlvi38qkK2slFiFTAfs6U4DN8DVDmEwrPVuX5mtWhEn01E0YYBVGBl/a3r+agrQv0xs9Il3lB+/fvXv7+sH4FHO2L+323qOdkiDKqrKUFvwav1J+G6vZep0om+OLUdtbl3uGxK3BKm/GD9mKjknji7LPMyZLLcatKSqT64RvKhl8iZK/HGmf1yMr76cO+3clgy9+BSvJHJwzRlYOOMc9zOJL03amjUmywM9bluaZeXc9iy/ewoUk71rMS/gJmXzxE/8lNDd3OGV+Zd5T7lTcnhbWlCHr/zot7PrlXHl9WpgM64icpVbB4mBWdqYmSVK8/jQtTJDCMrOvhGVjOuvLKuzgcq68Ml2y/PByrjz94oAUSZ9XVmSsuPjUJC0reIXrjDd00sOZf1cv47q5w3kieSl9crpHSjI1esPpk9OLFZnhLFdI8qshvGeSXz454r0jLMmSK2duVBa+bZIW7lvoUgySGn99p1x+9yWXvMn7PQdJUpimvec/BJn1/u9sbnOX9OX5BUr+c9zKN398+PhpQ0RNxKu9nargLTEpqjDKAS/tf/O3v14Vc+2rqoCm6EmuLA+NNO7siPr6ywyufcW3MgMpJpIRU08m5/laQJhEATYdYnN9LSBMpgCbrPbn+8ouTJJHbAkZfWUWVpXigdEYY50yja/MwuTqkJSkek3lK6swaWrWMaI0ls5XRmEyva45gpWvKX1lEybrv79G389J6SuTMFl90fd40vrKIkyid1unePvH1XS+0gurypjvR3z6M6WxtMKa9yRZNBTy+WoqZemENatSh1fIxoc0ytIIazbvS7MCNpONz1fmOpsrrNpc318NXZSNjx+usHXCBYSxNcTm+v2bsvwaQ1o+ffz84c8rIq6V1gXce7Gzvyd7plcoFAqFQqFQKBQKhUKhUCgUCoVCoVAoFAqFQqFQKBSKYmK3PK+1au+7LY7nAIQAwo6X+VR7MLD+By0qNLapQ4gBwBDq9axR1tCRI97bsgwj6EVfY6e9dvojc6EFiCh3YBgDF0HgZzy7AWBdtM+AOsNkgeseGimv6Rx2M7ZimZA7hn7UFT0fNrKfLhBmuwhAs153AdCpABOl7bt1lFZtHrgQukkPsLP6EguzIUaGzQ6p64eeNMIMBP0vyRhCYT72E/tdqkoSYT5EwZecLxJmINS6uEUOYS0SYNwd3tD13UEcIzXL8X3HiEOxMXB909IMw0qE0U1u107O98Fg4oqxsGDgON1QpheEX2AHAbt0r0t2NQotzAJ4yNte1zHGEOvhcNXyESQfAQzv09DJLowcn1QUkbBwE8BxVLV0NJkOQ2G2S8dNpDPL7mHosHGoU9UWQnSnNdCLK8wAOB7C3RjSWgdAZNZJmaHTOGnoEEPHIX+wbmbopPogO0ndFguzyCZ3YJKyJCq6AuRPfhUTZvsYdL2gjoCjjYKuoWMiLNCBa3mWj1xQaGFx44gVGlUQDNlIQNUEGOoeHUgxC4gBqUBo8EBA015rJMxG4SaPeI2ui8zJr2J2HOAzpQHQrQlhNgAs2GsmLLCwsS4JfQYkGyCMMrYFiAFPh254iElHiCGO7icAOBJmALapNYTwMOq1yJ38KmqnB1BU8g2AOyHMiIPSRgUWRpJ+cmf0n/rSPIS7PRQHClEHtC4G0UBKdg7IuArC5F/zY2EOBLZmuTrQfSvM+4IuGSAQfWKOLghzUDc5srjCaFlxYcbdxchrUS8hpHvUhliPcnmP2gHJuGrGwkwIB3T6Xk8u1eAnfSsJvJoOWheFuUnZUeSkr3UBHO88NRI/NhEW91OXCBvg2CnbgbnCMILd3tiF+GXFSJitg4ZI2LDIwoghPLbcUMdEia3HTnr0byTPRTfPcpULo+CxcZz0hxiaE+WvhfSxwpWeQO14SI9qOZIY7aTvkR+ErdVB8lMqcA5jgx52o3trmKScIEmI5KRQEflLl42B7AAiR2/QgSAcAeuJMDosMBGBk5SuLoaJMeswCIXVkgHQoXWFA8JZwhATYaSqCEPU0wstjCRiMig6RhAYDsBhRqOVQ73V80xSORADXVK2Go2exUoOmvaw6dmtOhjVYeRAN+g1ugDrcb9kFRfT1yJVlxkNiV0EWMcbAhqApKihX2eR69tUMZt9ehAXWxir4yHN2eRPP4yKgIQdqcdJZcY+OyTGdJ1EH+u8PVrB6ojOBKgwWqPZLtmpk2pfH80XbZOOmo7pk/9RzybbV0fIH9YxK8O0GrmQOTAPHZ8KayCsOwNTh06RR0mG5QIEyH9+0tCWS9esQdzDDEj3w2i37ZBdCAZJWUFufYjpEa538bJsqhOtfEcZvstWFf0w5ZGfFfkwsAEVRjIC/eQ2Cj1KRjQCywoaE1uC0bBX8yzLs8d3ejWNTQDi9WTbs4KJ9YnwsvFpYwdayYHkuvRr7eiYFttVK/YSdXYiBWRsK/JScmFo+Xo4/tfZRFMxjxpkQygdJf282/L/AV2moEMABJmfAKwoPRcBUhiYyldqWt2uMTUkKhQKhUKhUCgUCsXy+C8ouCZ00qPgWgAAAABJRU5ErkJggg==;" vertex="1" parent="1">
          <mxGeometry x="455.04999999999995" y="140" width="87.9" height="48" as="geometry" />
        </mxCell>
        <mxCell id="brUmei9bkIKx1N2It68e-4" value="" style="group" vertex="1" connectable="0" parent="1">
          <mxGeometry x="130" y="196" width="100" height="120" as="geometry" />
        </mxCell>
        <mxCell id="brUmei9bkIKx1N2It68e-5" value="" style="rounded=1;whiteSpace=wrap;html=1;fillColor=none;" vertex="1" parent="brUmei9bkIKx1N2It68e-4">
          <mxGeometry width="100" height="120" as="geometry" />
        </mxCell>
        <mxCell id="brUmei9bkIKx1N2It68e-6" value="" style="shape=image;verticalLabelPosition=bottom;labelBackgroundColor=default;verticalAlign=top;aspect=fixed;imageAspect=0;image=data:image/jpeg,/9j/4AAQSkZJRgABAQAAAQABAAD/2wCEAAkGBxITEhUTEBMWFhUXFhgSGBcXFhgWGBgYFxcXGBUbGxUYHSggGCAlHxcVITIhJSorLi4uFx8zOD8vNygtMCsBCgoKDg0OGRAQGzclHyUtLS03MSstLzcrMistKy0uKzE3Ky0tLS8rLTcrLS0vOC4vLS0tLS0tLS03LS0tLS0rLf/AABEIAOEA4QMBIgACEQEDEQH/xAAcAAEAAgMBAQEAAAAAAAAAAAAABgcDBAUBCAL/xABMEAABAwIDBgMDBwcICQUAAAABAAIDBBEGEjEFEyFBUWEHInEyUpEUQmKBobHBNDVydLPR8AgVI5OitNLhFzZUc4KSssTxFiQzQ1P/xAAbAQEAAgMBAQAAAAAAAAAAAAAAAQUCBAYDB//EADARAAEEAAQEAwgCAwAAAAAAAAABAgMEBRESITFBUdEiYZEjUnGBobHh8BTBExUy/9oADAMBAAIRAxEAPwCm0RFJB6024rI+ckWWJEAREQBERAEREAREQBERAEREAREQBERAEREAREQBERAEREAREQBERAEREAREQBERAEREAREQBERAEREAREQBERAEREAREQBERAEREAREQBERAF1ti4Zrav8AJaaWUe8G2ZwNj/SOs37VyV9N+Cf5mpvWf+8SoD5129sWajmdT1IDZWhrnAODgMzQ4cRwPAhc5Wb4lYdqq3blTHRxbxwjhc7zNaGjdtFyXELl13hVtGOWGENjkkla95DHHLE1haCZJHAAXz8r6c0JIMis6fwP2i1mZstM91r5A54+oOLLH67Lh7B8MtoVTZDG2JhikdBIyV5Y9r2gE3AaeBDgQb8UIIai6+KMOz0E/wAnqg3PkbIMhzNLXXAsbDm0j6l2sNeGlfXU7ainEQjcXBueQtJyuLSbBp4XB+CAhyKQDBla6sfQxRiWaMgP3ZvGy4Bu6QgBoF7cedwLlTGPwN2gW3dPTNd7t5D/AGsn4ICrkXcxThOs2e8Nq48od7MjTmjf6O69jYrbwngKu2gC+mjAiBI3sjsjLjUDgS76gQgIwitKXwMrw27aimcel5G/2sh+5RM4WqKSvpYK6GwfPEONnxyMMrA6zhwcONiNeIuOKAjkUTnZixrnBozOLQXBoGpcRoO5XRw5sSSsmMUbmtIaXkuvawLQeAHE+YL6ixPsPebPqKWlZGwyRPjY0AMYC4WHsjgPqVGUGDtq7Pq2xwxQzTywvIa1+YNjD4w57sxYB5i0DjzK8ptehf8AH/1yzM49OpNXA4uLcICihjfvTI578h8oa0DKTwFyeXVRZWFjrDW1mimFa+OR88pZFBFbg/KOeUDnbUrUrfCzaUNM6omYwWLGtha7eSvdI9rGgBgLdXDnyWFZsrY0SVc3eRlMrFd4EyQhCKzKDwS2i+MPkkgicRfduc5zh2cWNLQfQlQzFOGKrZ8oiq2ZSRma5pzMeBqWutxtzBsRcdRfYPI4yKYYQ8OK/aDN7E1scJ4CWUlodbXI0Aud68B3W5iLwm2jShrmtZUNc5rLwk3DnGzczXgWBJAvxA52QEDRTLbHhrX0tHJWVQjjazJ/R588hzvaweyC0e17yhqAIiIAiIgCIiAL6c8E/wAzU3rP/eJV8xr6c8E/zNTes/8AeJUJNbYH+sW0f1an+5izeKuN37MiiMEbHzTOcG575WtYG53ENILvbaALjXssOH/9Yto/q1P9zFFP5SOtB6VP/bqATXwoxnJtOnkdOxjZIpMhyAhrgWhzTZxJB1GvLujNpNg2++n4AVdHHN+lNC+VunMmIa9Iwor/ACcP/hrP97H/ANBXM8Y9qml23R1Lf/qhiebc2iaYPH1tLh9aA3P5RmyvLS1TRxzOpj1JcM8Y/syfFWTsmBmzdmsEnBtNTZnkcyxmaQ/Wcx+tbW2NlxVsMYcbsEkNS0jjfdvbIPqcAR6OKhPj1tvc7OFO02fUvyd92yz5D8cjT+mgJNgbZgp6QSSAb6e9XUO5mSXzuF+jb5QOgVYUmKcSVlTvqKCRsGa7I3xMZEWX4B0kli421LXeitnBG1mVVDTzMIOaJod2e0ZXtPo4EKBYx8S9pQTPgp9mPa4OytkkbJK145Oa2MAEEfSPfRATrFWxW1tBLBM0Bz48w43ySgZmkO7O58xfqsfh5LE7ZtGYLZfk8beFuDg0CQG3MOzX73VS7XgxFUUNRWVc8sEcbc4gaBC57bjOS1lnNa1uY+c3NltYQwHtqlp3T0lcyLNHvWQx/wBM2U5czQQ8btpPAZhfVAd6SjxLTVe+Era2DOSYg6KIuYb2GV7RuyOHsk6c1FcUYxr6mto6atom0rW1kErWua4yXErW3bKSGuHEjyhd3APiNtSerZS1dJmBOV7xFJE6KwJLng3bbgOHBTPxLponU8MkgGaKspHRk6hxqY2use7S74dkB1MbV8lPQVU0LsskcL3sNgbOAuDYgg/Wqn8HcQ1NdteSWrkzvFC+MENa0BonhIFmgDVx+KtfG9DJPs+qhhbmkfBIxjbgXcWmwueHHuqn8FcPVVJtN4q4XRF9HKWhxbchs1NfgCeoQEy8S/y3Y367+DVLMVbYbR0k1S5uYRMLw3S50aL8rkgX5KKeJn5bsb9d/Bq6Hi9+Z6z/AHbf2jEBE/DTxSqa6t+S1McTQ9r3RmMPaWlgzWOZxzAi/HhxHddvxk2M2pgo4zq6ugiuNQ2XMx/H04/UFUvgp+eKf9Gb9k5XB4w7Q+T0tNOb2irqaU21IYXOI+AQEhxBtCPZ9DLMxgyU8PkYPKPKA2NvDQXyhVRgXxbrJ66KCsERjnfuxkYWFjnexY3NxewseuvW2dt0EW0KKSIPG7qIrNe3zCzgCxw68bFVbgjwfqaetjqKuWHdwv3jRGXOc9w9i+Zoyi9jz0t3QEw8bPzNU+sH7eJfMq+mvG38zVPrB+3iXzKpAREQgIiIAiIgCsrBni0+go46QUjZRGXnOZiy+eRz/Z3ZtbNbXkq1RAWNQeKro9oVFf8AJATPHHFu98QG7sAXz7vzXtpYLl+IuPHbVMBdTiHc7zSTeZt5u/ottbd99VDUQE28O/EJ2y2TMbTibeua+5lMeXKCLWyOvqufj/Fx2nUMndCIssQhyh+e9nPde+Vvv2t2UZRAWlhrxmlpaWGmdSNl3TBEH74su1vBnl3ZtZthryUW8QMaSbUmjlfGImxsyNYH5xcuu52bKOJ8o0+aFFkQEowTjmq2a47kh8Tjd8L75SeAzAjix1ha414XBsLWXF48w5fPRSh3RsjC3/mIB+xUYiAsnFnjDV1UboYI208bwWusd5I5p4EZyAG3HQX46rXwP4r1VBEIJIxUQt4MDnFkjB7rX2N2jkCOGl7cBXyIC85fHiDL5aKUu6GRgH/MAT9irfHGParaTmiW0UTDmZEwmwdyc5x4udrY8LX4BRREJLd2P46TxxtZU0rZngWMjZd2XW5lpYRfrY/UFzf9Lkn84mu+Sgj5MaRsJmNgDI2Qvz5OJJba1unRVoiEFjYk8VnVc1HMaQM+Szb8DfF2fTy33Yy6a8VsYt8X31tJNSmjbGJWhucTl2Wzg72d2L6dVWKIDt4MxCaCrjqhGJCwPGQuyXztLfasbWvfRSfHnig7aVMKZ1K2H+lZJn32f2bixBYLDza35KvUQF84Mwnt2hpn7qqp3NDS+KmcHTMLrXsJCWbu/wBEltzfmSsGwavb1fXQNrYXU9PDIJpA2MxMeWXLRdziZPNl4A258goRhDxVrqGNsNmTwtFmtkuHMHJrZByHIEG2gsOCkNX471BaRFRxMdyc6R0gH/CGtv8AFQSTDx52pHHswwOIzzyMa1vO0b2yPdboMrR6uHVfOa6WINu1FbMZquQyPPAcmtbya1o4NH8G5XNUkBERAEREAREQBERAEREAREQBERAEREAREQBERAEREB2cIbD+WVccBdkYcz5H+5GxpdI7jzsLDuQuuzE2z96I/wCa4Pkl8pcTIavJpvN9msHW82W1uV+a28I0TqCrpnVxayGvpXta8OvlZUMAY53u8Sy/S56LjNwNtD5SKX5NJnzBufI7dW//AE3tsuTnf8eCEnQ2XsGiEldUPkdUUVHlyZSWGodKbQRl1gWi9w4gcrjgVl2LtCirpm0lRRU9NvTu4Z6YPY+KR3CPeBzyJWk2abga39NrZdFBIzaeyqObelz4pqVzi1pndTk71jSOBJF8vW11zcF4XqflkUlRFJBBTyNqJ5ZWOjZGyIh5BLwOJLQ0AcePYoDb2NsWlhoa2aui3ktLWNgyBzm5yA5m7zA+Vmc5iRxIZbmtjYfyGupqqWpo4oHUbW1H/tM8QmjJcDE8Oc6xJDRn1Gbsb49oV4qNmbSnAsJdqMlA6B4e4fYQtLBX5Dtj9Vj/AGqA2diS020W1FO6hp6d7KaWoglpxIxwdEM2STM47wEcLn/xBWlTDwt/K5v1Kq/ZqHR6D0QHqIunsDYc1XLu4R3c8+ywdSfuGp+Kxe9rGq5y5IhLWq5ckOYisv8A0Ws/2l/9WP3oq/8A21T3/ovY2f4U/ulaIiKyNQIiIAiIgCIiAIiIAiIgCIiAIiIAiIgMk073hoe9zg0ZWhzi4Nb0aD7I7Bbf891W63PymfdWy7vfSZLaWyXtbtotBEB60kEEGxHEEcCCNCCNFvV22qqZoZPUzStHENkle9o6eVxIWgiAyCZwaWBzspIcW5jlJHAEt0J7pHM5ocGucA4WcA4gOGoDgPaHqsaIDJDM5huxzmmxbdri0kHgRccj0WNFLMG4MfVkSzXZT9dHSdm9B1d8O3jPOyFivkXJDOON0jtLUNDCuGJa1/l8sTTZ8hHAfRb7zvu597m2RsqKmiEULMrRx6lx5uceZ7/gs9JSsiY2OJoYxosGgWACzErisRxOS27Smzencvq1VsKZ8wi5f/qSj/2mH+sb+9Fo/wAWf3F9FNjWzqhQaIi+knLBERAEREAREQBERAEREAREQBEU8wbgPfN31YHNYR5IwcrnXHBxOrRzA5+mvhYsx12a5FyQ9YonSO0tIGikOLMKS0br8Xwk2bIBp0Dx80/YeXRR5ZxSslaj2LmimL2OYuTkCIi9DAIiIAi/TGkkAAkk2AAuSToAOZVoYKwII8s9Y0GT2mRniGdC73ndtB66alu5HVZrevy5qe8MDpXZNOXgvAhkyz1jSI/aZEeBf0L+je2p7DW0WNAAAFgBYAcAANLBerV2ntGKCMyzPDWjmeZ5ADmT0C4m1cmuyb/JEL6KFkDNvUzVE7WNL3uDWtGYuJsABzJVS40xs6pvDTksg0J0dL6+63tz59Fz8W4slrHZeLIQfLHfXo55Gp7aD7VHV0mGYQ2DKSXd32/JV27qv8LOAsiIr00M1CIiGIREQBERAEREAREQBERAEXoVnYFwRky1FW3z+1HEfmdHPHvdBy9dNW3bjrR63+nU9oYHSuyaYMC4H9morG9HRxH7HPH3N+PRWQi5u3NuwUjA+d1g45QALuPUho4kDUn/ACXEWLE96Xhn0RC/iiZAz+zeqIGvaWPaHNcLFpFwQeRCqfGeBnU95qUF8Orm6uj/ABc3vqOfVWvTVLJGh8bg5jhcOBuCPVZSFNO9NTf5c0X92Uieuydu/qfN6KzMaYBzXnom2dq+EcAepj6H6Oh5dDWjhY2PAjgQeBBGoI5LtqluOyzXGvy5oUM0D4nZOPFmo6Z8r2xxNL3uNg0an93ryWfZGypqmQRQNzOOp0a0c3OPIfwLq5sLYXiomWb5pHDzyEcT2Hut7fFa+IYlHUbvu5eCHpWqumXyNDBuDGUgEktnzka6tjvqGd/pfDgpYij+K8VRUbePnlcPLGD9rj81v38lxznT3puqr9OyF4iRwM6IhuYg27DSR7yZ2vBrB7Tz0A/HQKmcRbfmrJM8ps0XyRj2WDt1PU6n04LV2rtOWokMs7i5x+AHJrRyA6LTXX4dhjKjdS7u69ils23TLkmyBZYIc2ui/cEF+J06LbCtUQ0lUx7hvQIsiLIg5iBEWBkEREAUhwrhOWtNwd3EDYyEXuRyaPnHryH2Lp4LwO6otNUgth1a3R0n+FvfU8uqtmCBrGhrGhrWjK1oFgAOQA0VFiWMNg9nFu76J+Sxq0Vk8T+BQm3diTUkm7mHdrh7L29Wn7xqFzV9BbY2TFUxmKduZp4jk5p5OaeRVNYqwxNRPs7zROPkkA4Hs4fNd258u3thuKstJpds/wC/wPO1TWJc27ocJERW5pBetaSQACSTYAcSSdAAvY2FxDWgucSGgAXJJ4AAc1beB8FimtNUAOnOg1EQ7dXdTy0HU6d27HVZqfx5J1PeCu6Z2SGHA2CRBlnqgDNqxh4iPuer/uU5RcDFmKIqJnHzSuHkjvr9J3Rv36BcVJJPfm6qvLkiF81sdePyMmKMRxUceZ/me6+7jB4uPXs0cz+Kpba21JamUyzuzOPDs0cmtHID+OK/G0q+SeR0szi57ufIDkAOQHRay6/D8OZUZ1cvFSls2nTL5HewriiWjf5fPET54yeH6TT8132Hn2uTY21oqmISwOzNPAjQtPRw5FfPq6GxNsTUsgkgdY6OaeLXjo4c/vC8sRwplpNTdn/f49zKrcWLZeB9AKKYswTFVneMO6luMzgLh4+k3mbc/j238L4mhrGXZ5ZAPPET5m9wfnN7/GxXcXJNfPSm91U/fmXSpHOzqhzthbEhpIxHC23Nzj7Tz1cef3BdFFXuNceZM0FE4F3svlHEN6hnU9XaDlc6ZQV570vVV4qYySMgYdLGmNWUt4oLPn582x93dXfR+PepKmd8j3SSOLnuN3OJuSVjJvxJuTxJPEk8+KAdF2tKjHVZpZx5r1KKew6Z2a8DxbUFPzd8F+4ILcTr9yzLfRDWVQiIpICIiA5iIslNTvke2ONpc9xs1oFySvNVy3UzPwByGugA5nlwVk4KwFbLPWt46shOg6GTqfo/HoutgzBLKa0s9nz8ubY/0ervpfDvMAuXxPGc84oF+K9u5b1KOXjk9AFjqahkbS+RzWNHEucQ0D1J4Bau2drw0sZlndlboBq5x91reZVNYpxRNWv83kiB8kYPAd3e87vy5d63D8MktrqXZvXsbVm22FMuKl5ArFWUjJWOjlaHMcLOaeIKqjBeNnU1oai7oNAdXRenvN7ajl0VtQTte0PY4Oa4ZmuBuCDoQV53KM1KTPlyX95mUFhk7f6Kdxlg19ITJFd9OTrq6Ps/t0d8eOsYp4HSOayNpc9xs1oFyT2C+i3sBBBAIIsQRcEHUEHVcbYuF6amkfJCyznnmb5G82s6C/7tAFbVsfyhVJUzcnDzNKXDs3+Dgc3BODmUg3ktnVBHE6iMHVre/V3P01liKK41xgykaY4rOqCOA1DAfnP/AAbz9FT+3vz9VX0ROxvezrx9EMuMcWR0bMrbPncPKzkB7z7aDoOfxKputq3yvdJK4ue43Lj/ABwA6L81NQ+R7nyOLnuOZzjqSsYHRdlQw+OozJN1XipR2LLpnb8AFuQQW11XsENvVZVYohqqpqz0/NvwWsumteenvxGv3qMgimKkqnxPbJE4se03DhwI/f6K28I44iqW5KgtimAubkNY8AXLmk6dS0/V2p9eELRuUIrTcn8evM2YLD4V8PDoTrGuOjNmgpHFsWjpNHSdQ33W/aew1goRfuKMuPBe1atHXYjI02MJZXSO1OPGNJNgt2GEN9eq9jjAFgv2tlEPHMIiKSAiIgCIiAw7I2VNUyCKBuZx4k6Bo95x5D+ArkwrhaKjZ5fNKR55COJ7NHzW9ufNb2wtiQ0kYjhbbm5x9p56uPP00C6N1w+JYu+wuiPZn3Ogq00i8Tt1C4mJ8Sw0bLyeZ7vYjB8zu591vU/C5XPxjjKOkBjis+cj2dWsvzf/AIefZVDW1ckrzJK8ve43Ljr/AJDoBwC9MMwdZspJtm9Oa/gxt3UZ4WcTZ23tmaqkMk7rnRrRwawdGjl66nmuei2Yafm74Lr2MRqI1qZIhSOcqrmprKSYRxbLRuym74CbujvxHVzL6HtoftXAmhy8eSxLGaFkrVY9M0UyY9zF1NU+htm7QjnjbLC4OY7Qj7QRyI6FbSobDmIZqOTPEbtPtxk+V4/A9HBTXEPiOwwtFHfePHmLhbdciOjnfYNVyNnApWzI2Ldq8+nxLmLEGKzN3FDp43xm2mBhgIdORxOoivzPV3QfWeV6jmlc9xc8lznHMXE3JJ1JPNePcSSSSSTckm5JOpJOpRrSTYLpaVGOqzS3jzXqVU9h0zs14HjW34BbsMOX1XsMQb6rIt9ENdVCIikgIiIDFNCHeq03NINiuivzJGDqoVCUU04YS70W61oHAL0BERCFUIiKQEREAREQBERAX6q/xpjwR5oKMgv9l0uoZ1DPed30Hc6crGuOjLmgpCWxaOkHB0nUN91v2nsNYIFy+GYKjcpZ035J37FvbvZ+CP1PXOJJJJJJuSTcknUk8yi9a0k2C3IYQ31XSohVKp+IKe3E6/cthEWZiLLUngtxGn3LbRAcxFtT0/Nvw/cteNhJsFhkZZhjCTYLeijDQkUYaLBftZIhCqERFJAREQBERAEREAREQBERAEREAREQBERAcxfuOMk2C9hhLvRbrGACwWKISqnkcYbov2iLIgIiIAiIgC8AXqIAiIgCIiAIiIAiIgCIiAIiIAiIgCIiAIiIAiIgMcHsj0WREQBERAEREAREQBERAEREAREQBERAEREAREQBERAEREAREQBERAEREB//2Q==;" vertex="1" parent="brUmei9bkIKx1N2It68e-4">
          <mxGeometry x="10" y="30" width="80" height="80" as="geometry" />
        </mxCell>
        <mxCell id="brUmei9bkIKx1N2It68e-7" value="&lt;font style=&quot;font-size: 9px;&quot;&gt;DATA SOURCE&lt;/font&gt;" style="text;html=1;align=center;verticalAlign=middle;whiteSpace=wrap;rounded=0;" vertex="1" parent="brUmei9bkIKx1N2It68e-4">
          <mxGeometry width="100" height="30" as="geometry" />
        </mxCell>
        <mxCell id="brUmei9bkIKx1N2It68e-8" value="" style="group" vertex="1" connectable="0" parent="1">
          <mxGeometry x="339" y="220" width="320" height="170" as="geometry" />
        </mxCell>
        <mxCell id="brUmei9bkIKx1N2It68e-9" value="" style="rounded=1;whiteSpace=wrap;html=1;fillColor=none;" vertex="1" parent="brUmei9bkIKx1N2It68e-8">
          <mxGeometry width="320" height="170" as="geometry" />
        </mxCell>
        <mxCell id="brUmei9bkIKx1N2It68e-10" value="&lt;font size=&quot;1&quot;&gt;ETL&lt;/font&gt;" style="text;html=1;align=center;verticalAlign=middle;whiteSpace=wrap;rounded=0;" vertex="1" parent="brUmei9bkIKx1N2It68e-8">
          <mxGeometry x="112.94117647058823" width="94.11764705882352" height="30" as="geometry" />
        </mxCell>
        <mxCell id="brUmei9bkIKx1N2It68e-11" value="" style="group" vertex="1" connectable="0" parent="brUmei9bkIKx1N2It68e-8">
          <mxGeometry x="38.14588235294121" y="83" width="243.7176470588235" height="70" as="geometry" />
        </mxCell>
        <mxCell id="brUmei9bkIKx1N2It68e-12" value="" style="group" vertex="1" connectable="0" parent="brUmei9bkIKx1N2It68e-11">
          <mxGeometry width="56.470588235294116" height="70" as="geometry" />
        </mxCell>
        <mxCell id="brUmei9bkIKx1N2It68e-13" value="" style="shape=cylinder3;whiteSpace=wrap;html=1;boundedLbl=1;backgroundOutline=1;size=15;" vertex="1" parent="brUmei9bkIKx1N2It68e-12">
          <mxGeometry width="56.470588235294116" height="70" as="geometry" />
        </mxCell>
        <mxCell id="brUmei9bkIKx1N2It68e-14" value="&lt;font size=&quot;1&quot;&gt;BRONZE&lt;/font&gt;" style="text;html=1;align=center;verticalAlign=middle;whiteSpace=wrap;rounded=0;" vertex="1" parent="brUmei9bkIKx1N2It68e-12">
          <mxGeometry x="4.705882352941177" y="30" width="47.05882352941176" height="30" as="geometry" />
        </mxCell>
        <mxCell id="brUmei9bkIKx1N2It68e-15" value="" style="group" vertex="1" connectable="0" parent="brUmei9bkIKx1N2It68e-11">
          <mxGeometry x="93.12941176470586" width="56.470588235294116" height="70" as="geometry" />
        </mxCell>
        <mxCell id="brUmei9bkIKx1N2It68e-16" value="" style="shape=cylinder3;whiteSpace=wrap;html=1;boundedLbl=1;backgroundOutline=1;size=15;" vertex="1" parent="brUmei9bkIKx1N2It68e-15">
          <mxGeometry width="56.470588235294116" height="70" as="geometry" />
        </mxCell>
        <mxCell id="brUmei9bkIKx1N2It68e-17" value="&lt;font size=&quot;1&quot;&gt;SILVER&lt;/font&gt;" style="text;html=1;align=center;verticalAlign=middle;whiteSpace=wrap;rounded=0;" vertex="1" parent="brUmei9bkIKx1N2It68e-15">
          <mxGeometry x="4.705882352941177" y="30" width="47.05882352941176" height="30" as="geometry" />
        </mxCell>
        <mxCell id="brUmei9bkIKx1N2It68e-18" value="" style="group" vertex="1" connectable="0" parent="brUmei9bkIKx1N2It68e-11">
          <mxGeometry x="187.2470588235294" width="56.470588235294116" height="70" as="geometry" />
        </mxCell>
        <mxCell id="brUmei9bkIKx1N2It68e-19" value="" style="shape=cylinder3;whiteSpace=wrap;html=1;boundedLbl=1;backgroundOutline=1;size=15;" vertex="1" parent="brUmei9bkIKx1N2It68e-18">
          <mxGeometry width="56.470588235294116" height="70" as="geometry" />
        </mxCell>
        <mxCell id="brUmei9bkIKx1N2It68e-20" value="&lt;font size=&quot;1&quot;&gt;GOLD&lt;/font&gt;" style="text;html=1;align=center;verticalAlign=middle;whiteSpace=wrap;rounded=0;" vertex="1" parent="brUmei9bkIKx1N2It68e-18">
          <mxGeometry x="4.705882352941177" y="30" width="47.05882352941176" height="30" as="geometry" />
        </mxCell>
        <mxCell id="brUmei9bkIKx1N2It68e-21" style="edgeStyle=orthogonalEdgeStyle;rounded=0;orthogonalLoop=1;jettySize=auto;html=1;entryX=0;entryY=0.5;entryDx=0;entryDy=0;entryPerimeter=0;" edge="1" parent="brUmei9bkIKx1N2It68e-11" source="brUmei9bkIKx1N2It68e-13" target="brUmei9bkIKx1N2It68e-16">
          <mxGeometry relative="1" as="geometry" />
        </mxCell>
        <mxCell id="brUmei9bkIKx1N2It68e-22" style="edgeStyle=orthogonalEdgeStyle;rounded=0;orthogonalLoop=1;jettySize=auto;html=1;entryX=0;entryY=0.5;entryDx=0;entryDy=0;entryPerimeter=0;" edge="1" parent="brUmei9bkIKx1N2It68e-11" source="brUmei9bkIKx1N2It68e-16" target="brUmei9bkIKx1N2It68e-19">
          <mxGeometry relative="1" as="geometry" />
        </mxCell>
        <mxCell id="brUmei9bkIKx1N2It68e-23" value="" style="group" vertex="1" connectable="0" parent="brUmei9bkIKx1N2It68e-8">
          <mxGeometry x="52.30117647058823" y="20" width="215.41647058823528" height="50" as="geometry" />
        </mxCell>
        <mxCell id="brUmei9bkIKx1N2It68e-24" value="" style="shape=image;verticalLabelPosition=bottom;labelBackgroundColor=default;verticalAlign=top;aspect=fixed;imageAspect=0;image=data:image/png,iVBORw0KGgoAAAANSUhEUgAADwAAAAhwAgMAAADt0CPhAAAADFBMVEVHcEz/00I2c6VkZGQLizpWAAAAAXRSTlMAQObYZgAAZSxJREFUeNrs3TuOI7sVBuALddaBFqLIcQf21rQUhY3iBTEx7aB34H0wcOLc8IwerdJzmtUqirS/b3AxmoYaF5DwgzyHj/rjDwAAAAAAAAAAAAAAAAAAAAAAAAAA4H/B3/41nPn7v30q0L7/DLeFf/h8oFl/HX4vfPicoM/07skwNOVlKGMuDc1YDuWCjw16je8vf/rooLfJswhDO/LwLR8+QXiat+G7lMLQ4ezZIAzPtRweQyUM9a2GR3n3YUKP02fTaHiGxfBYax8pdFf+Hv3woUK3+ZVgqOV1mMPGBwvd5tcYDD3nV4Khz/pXLxrqWAyDBEOnXoZ5+YRhRjPn1+EkmNFq7gA72QCzeRvmt/ExwyyWQw1rHzT0WABrZEHPBbAyGObyOtTyw4cND/Yy1OPThgfLFQNsEg29TqB1ouHhqubXhix4qFXdAA8bHzk8zGKo7cOHDo+SqwfYXdHwKK9DfWsfOzzGE/KrjwUdD8D2Y0HHA7AhGHoegIdh46OHXgdgQzD0PAAbgqHjAdipJOh5ANaIhp4HYFUwfNPymQG2HQu+Z/XUANsRDd+xGAZDMBiAXa4D1Q3P5iuAyV6fHuCNLwGmyk8PsJUkmGoxPN/a1wDTvDUQYCtJMNHQAl8DTLJsIsAbXwRMsWoiwObQ0O8MWhsLJnltJMDm0NDtDNpSMPQ8gzaHhgmWzQTYHBq6nUFbCoaeZ9Dm0FBs0VCAzaGh0GtDAdaHhkJ5MIcGM2hzaPi/nkHbDw2FVk0F2EISFGkrvx6yAv2WwK6XhY5LYHNo6LkEtpAEHZfAw7DxnUCvJbCFJOi5BFYEQ8clsCIYOi6BFcHwZS8NBlgRDF+0bDDAimDot4elCIaOe1iKYOi4h6UIhi9aNBlgRTD028Mahg/fDPTaw9LFgo57WLpY0HEPSxcLvuSl0QDrYsEXLFoNsCIYuu1hudkOvuKt1QDrYsHvrQZdLOjWMOhigQDrYkF1CwGGfr22G2BdLOg4wLpY8DurdgMcfDvQb4C1oeF3Gs6vLhZ8L8DbPlK2mRLatPhKgt60oaG/AG+eXChrQ8N9r1/LjwBDbwEevW2pDQ0NWn2xAn3OJPrDFwQTA1zQ7LKOBE/x5RbwShsaOgrw2fS1fhUcBRimBvj961HXhobnWHx9F9SbAEM3AS54q3UkeI5lwdhnHQka81pwjmBlHQk6CfBHwWg9Yxv6h68Ibnsr6R5ZCIa2rEqCU3cOnQUYJgZ4XTTfnu1SLOtIMCXAV99ceSEpWQiG+8o2UFgIhh4C/Of1d+eqHWgBhmkB3pRNuC0EwzO8lMXmtXYPS4DhjkVZ5Vl9O3S0kwOKA/xeOOOesQre+JKguwDHQ4IFGEoDfDM19btYFoLhpmVh6/e1dgkswHDba5sBDoet0EMWYCgNcOmU21YsaCfAtx+s/VJ9M7QAQ2GA70xbqy8jCTAUBnhz+xdy1fSGn3/WviV4VIDrryMJMJQF+MftX3ir1YT+fCXAUJbHdWni55lEx2ArFpQH+KOFALvWDqYF+M4v1FkIDvslJAGGe1YtBjiOXgUBhrIA39u9WHEnR7QZGh4c4KongpPjSFBcA7cQ4OQ8IUwbgf+89xvVLqbc/4+iAEPRCLwpjvx8o3C0GRq6CnAataGz0wxw22ujI3ByIBgmBnhdPGbPUgL//JMFGB4a4Pp7KT98TdBNgPP5pkoBhk5HYCf6obcAhyH+KoCDE/0wIcAfrYzAWYDhsQFeVn88kgBDSYDv/sai8vgrwNBVgNM4vmnwgFHoJ8DpYiAWYOhqCp3CNslhF+iNrwn6CHA4fZ2TS7GgtxH4dD+WAENvAXavLPQZ4O28eTQECzD0NQKnz3I4CjB0N4VOn30sF0NDLwGOpymOptDQ1QgcLjdzCDA8LMDLSrPn+JlnAYaSAH8U/8Ycg/BhT0cUYCiJ4/q5AT4viwUY+grw/kBSUANDjyPwoY2VrQNDLwH+dRnW9h67k61YAgzdjMDp4miSAENJHO8mptLDzYJ1YOgywOG4DfrncJySAEMHAY5XBmAH+qGnEThd5lmAoSTA7/d+o0LdG0YVcBJg6CPAu7WjY3ijjRzQVYCPZxmiLjRMCvC940gVr8TaburQhYa+AhxcagczBbjKs83CyVO+BRiKArwu/YVHTJjD/vxRHtfDUYChhwBfFsDZCAxTAnwnMqu5G9B5e4Rw92CV3RAswNBDgG/EWoChKMB3FoKrn0UyAkM3Ac4XRxkEGEp7Ujffv5g1uWH06vCDJMDwqAAvK3SfTxaBHWaA4gCvC9//oLI3n4zJlpFgWoBvZmZVq3PlTizoK8DHJ5rlzwT/nEFnAYayAN9sQ1daP9rfL2sEhikBvtXFWtTIb3QaCb4X4I/rb1/O2Xy+tb4kwFAY4HXZ2x/cwwq7ObQRGKYFeFO7h3U4wHAyFscQNLGgPMDvdXtYcbQPK37e656NwDApwMMzelixcE0LBLikCJ6rBM4393IIMEwJ8KZuCXzyTIa8Pdb/GWwBhtIAv9csgS+m0fkzyjkIMBQHeKhfAu+Cu+9d5e2eSiMwTAvwul4JfFoHn/00CzCUB3hTuQT+VQTnsxm0ERgmBvhyDv1SextlFGCYGuB1xRl0Gg268WxFKQkwlAf4Ijd5/g0c+fDPcEiwK3VgUoDP59Bz96DTdiU4fp5m+PVXMIWGiQH+cfrWtxolcNbEgscE+GwvR60nMeTzVwIMEwJ82saa+almcbyX8hjiaB0YJgY4jN74Mnt+j7PpdJLjJMAwJcDjsW81d3zj7q90vNdODQzfCvDxaqxlpQI4jc4VJgGGbwX4sJS0GKpJ4wE4CzB8I8DD/PmN552rMGpnRQ83g28EeIh/+ef8g+759sk4jrcAw+QAVxL2l3Acw3toZyUBhmYDnE4fqXJlbi3A0GiAw9l1WOE0yUmAoYcp9Hj8zdFeaOguwFem1lmAofkA/0xrCsdu1mhhKQgwNB3gnD+r4DyeTEc3ckAnU+h01n7Ou58EU2hoPcD5OJH2aBXoJsA5nt9JmS5fCzC0PoUebeLYPhppl97tGUMBhuYDnEb/HYIcjcDQQYBTGp9gSKc33QkwtBvgOFr4TeeF8K85tABD61PodAzsyUkGxwmh9QBfWzyK+wZ1EmBoNMB5yGk4Of8bLnZiCTA0GeD02x9HAYbGp9AXG7Di6QsBhtabWDmfzKHH8RZgaDnA4WJXdA6jq3YEGBoMcB79la+E2V5oaH0EjuO45m1+8yi+2XlgaDfAeTTont8KndTA0HKA88UwfFEX24kFjTexriR7fN2sAEO7Ad6tHcV4GIpTcCMHdBHgfBHluN9hufsrRQGGNgO8DWk6Hj6KV/vTQYChwQDns4o3nrazjsEWYGgtwOHaeYbzrZRBDQzN1sDhMMjmqz+N+38JMLTZxLqcUYfjpe4/XwcjMDQd4HQseMP15rQAQ5sBPqY371pZ+fJIcBJgaH4Kff2Yg+OE0GqA0+1rdfb32rlSB9oMcLjYsrE9TBjCRR0swNBYgMPpfVjp+Hjv8x1Zno0EjdbAN+bPMexONaiBod0Ap5NX4bDue9gWnQ7TaAGGJkfg7eT5bNX3Yiu0AENjAb56FUe++i41MDQ4AueTl+Hwo3jZ7BJgaHEKHe91tY5taQGGxgKcRjutxotHaYjhM7r7290FGJpsYoWzi93TcQN0SodQJwGGJgM8qobD7WUmAYZGA5yvLRzF0YORBBgaC/D+9qt4dpvdrevdBRiaHIHzMIyv3tgFNp3MoD2ZAZoLcLz+MpwUwIenMwgwtDYCx6sHC3ePI3QrJbQb4HFA82ec08m0Oo+uyRJgaLEGTodT/P9l72yS5DhuMBqmwxsuFD6HjsCFQ0fQwrxkIQIHgG8EXcLsrspMZFZ1z3RXko1WvBchajg98sLUJwBf4mfognZhqR1AbgGLDGK2wd+6DAULjRwA6QSsR09GP0TrwZQ2NnIApE6ha6iVkFHvIjECBkgn4HUjtA7GlgdL2i4d0ZdvIWCAPAIuh1Pa/dBbfViKiQWQN4XWG1MMl2pYcaEBsgrYQqfk+mURrOtO4wgYIF8E3vdimfUrdrbfIWCAjCl0v5LD2moO64b9ETBATgH7vQ90Pf1NBAZII2BbbWgL8rWjkyolh/4fERggYQS2MLIwfuLdqD8CBsgmYA0z/FaGf7WMBDvDDABZBez3pwxl+BYCBkgjYB0WuB+vdTdrOTQCBkhXA28dV9skQ+iuHFfcOQIGSCJgiV9pH3utfmlh6tCJwABJBKyxbUNv9GVtBlc1uRAwQLIU2vZR2YrBpfETjpsB5BKwLbLsk2eL48FF1cpSO4CcJpZ2w8HdYvfe2ULAAHkE3DbJlu6Nw6dhEd6BAXJGYDnealcdLIkhGQEDpBCw9A6WhJjsyxCY28cIGCBLBJajlyOLi6IHlTsCBsiVQo/dzuWUmWkoi0twdgQM8Mv48lhTh9lhP4esVjTjhABpBGztaqjcXsbRKRgBA/xS/vnQLMPY/nwNwvE8Awe+ATKl0Jcyt98da90LcSmCL21ZSgQGyFkDS5xMkjpJqKuXxUYOgHQptB6N8vvxoo6aXRsCBsgWgbfw67Zzpse7wURggBwR+LCfo5OubCFa6u1CQ8AAGSJwvUZoW8GrR8s5YivW2pyFgAFeH4G3yV/t9l1tr0ZjWayxXEbAANlq4EHG5de2IXo7cUYNDJCvBh7S5a2tsuq3i9wIGCBFBLawzM53SvZ4NlhqGCYCA7w+AnvfeOVxybveFT0CBshRA8euSQ8+dB+LvT+QhIABMtXA3SjSdovQ2xvTUr4jTCMBZIrA9w+dWZ9nK9NIAHkisA6LdLQ7+i1XG8t7e/oytmQIGCBJBLbjE8AHYlemkQBy1cDj9pwacb0+//6oj3+I3BgnBMgVgb3pV5twF5NgTtt+d7QjYIBXR+Bdx7PfM7S0Uz0CBkhSAx+9DMvSXfeWZkFzWgUgUQ18NbCO2zfc4kWVNozEMxJAjghsrRS+jhFafC+qXlZYT7meLjQEDJAjAu8GGOzGeo54KgkBA7w0AssHL0o1j5b6iQjPSAC5IvDuiorXScKljDCUXVjt5xEwwKtrYF87nT2+GHlYDy37l+BV0YaAAdLUwBfvSuT+u5LXA+DCSh2ADBH4XlK9PSBp/ZZ2tTMCBnhtBJbdb2R3i/DyRGydQe3sxAJ4fQS2eoIwrs+R9bVIDy6v9MeREDBAghrYgg+tIQRbF45lsKwNAQMkqoHl7guTlSsrWm8nIWCABBG4O+IdLgHvJN1tfGcaCeDFEbivc8tOjrhCx8KBJBvGCxEwwKsjsN7coaNhnFCuGytNy5p3f0TA//g3/+8D/MQa2Nqvrt0y2VWtelQrWxDwv75/wB/8AQDMj8Bl27O1DLk7i+T9Giwt2rbexPpQwN//y58AwNQIrEc21ofXvrdO6eVBAX//zh8BwPQaOB4QbY/BYfJo3dQhm8olLNl5UMCk0QA/pwZewqKcwyCt3aCD7lzoTwkYBQPMi8C6f+zVa4eGhjh71Iy1Lc/ShwVMFg0wOQJ73Hw1fhLPAZuGKeHr1ujHBYyTBTCzBpbw18fXR4cjSo8L+Puf/DkA/IwauCzQiV6V6RCYq9btSQFTBsOb858lHfKJy99Wbq40OfszAqYMhnfmWx7Z9h7W1raxes0elk925rO0kw3+XAQmiYa/WRn6OiycX+jD8Kps39qgVftBYX++BiYEw/vyNWXyLL3zLLd+TneNH88JGCcaSJ9/QhRu9a2Fq99BwVHc1x08zwkYHwvQ74wK+MYRUek0rEM3R72bpM+m0IRgIH+eqmTT/TSDHy3DumyDVjlZAxOC4Q35bcmM9iF5ff7V2nbl4TkpxOdnBUwIhnfjSz7R+uozD8o124fg2OER7o76swImBMO7kTTs1r+GhbG700njzIOdicCEYMDAmtuFJUfGtMeYW39jV53bGQHzFgwUwPOF7HsNazeopJt6twn/5wX8J/9OAAn0tFektshO22ngGnPL4QYbvGp9XsCEYCCBnjvGMCbRcqvxQ5cT44TYWPB2fEkrXRsvd99eeSfbclkJRwxPCBgbC96G3zM+IYWvbGyttFgTix4tp9Tne6EJwYCDNUXFPp4mXL9o6ylFwhIOD9MP+vBid2wseFM8vQNt6/Sv3dgQXS8xlC6PcvzsjICxsYAAfDqN1v0oUnhHkqOKOHzzlIDJoYEAPH20UEPc/avp9vrOZGZhXdZZAWNjAQF4xmuw347KoR3L2zbZORGYHBoIwKdtaLv1xPRXGOi3XZ/lNd/2cwImh4b8fFkSl8Bal+jo0ptYvvQDhN4H5i2TPidgcmjIz++JE2ivfy/LckwOl3VItLG2HXena2ByaCAAn1+E5YfbsUKZrPGVWDpRnxQwOTRk59uSGxunkSRIWsOeDh/6t/TkMAO9HPAO5M2dfec+NyFL9amCwGVpR4O3HuqTAiaHhuR8zR1/g0YHs9zKzQYtW++2WcKYUZ8WMDk05OYtmji0bdLRO1m26q4p66yAyaEBC+tc7ev7eWAdf+xwGElPDjPwkARYWBPEa/2uOisZs9RPpOzVWUcZtEXrswKmCAYsrDMD/VoVqnrjp+z2Ip7zAiaHBjLoCTux+g/q7iuXXdgWKedFf/xyWsDk0JCY33ObV75IvxbahqcmD+3Q24fdoSQ5LWByaCCDPrnRrqyJHTuxZHxesvocXD44L+A/+LcEsvL1LdJnH+0tXfpL3mX7nYXQu33rvIApgoEM+okRhmEtdDOct70c3QP2X20/h5fVOj6lBqYIBjLoJ3NnP158VaK03E25J7nQFMFABv1sILa4kkM67XopgHWreUU2+6rE7xnDDBTBQAZ9ogS2doGh3QEO9e/RHrtymPD6AxMETBEMZNDPatj2I4J9xizLInWvXX99VOak0BTBkJMvy5vgUbr9q28/c+ixd2tWDUwRDDn5lti/utOIVQ0s75ZyeJdK27a+coaAKYKBDPrxcYbNjvKaGOsy3DqzTvKbpq1pf8YwA0UwkEHPex2Ote/hHGH3HwGdImCKYMjI1/xSLd3O25uvjg1al3rYZJgK1stiO5n3DkwRDCn5PXEJbNGL7jqgzXa7KU3a+68PhtYUAVMEAyXwtLEGiwMLwY1ew3R7UbLLLwgYKIFfk0ebLd2uK91L2sd2Sg/90LMaOXCxICPfEovXqgajQnVc1eE3uqRDbJ4iYFwsyIe/S94sO4XG5g0tKzqsdnm4156sOTUwLhaQQT/WxtEcKelm930ofaVNB28H0EpDx7WPY04EpgiGdPyWOoG+Jez6rmTx0srxS5ROM7EogiEdmbdhDZ6V7tJn78YcJLwmdUWzzBIwRTBQAj/V0RG3TupBB6WXWNxVyvWfMgQMlMCvyKLjEZX9Ruhtw07V9P4Mmq3nWOYIGBcLKIEfG+W/M48kg2ptnWDQMvoQGysnCRgXCyiBn8uhy0ORj+6W9T0d7QFZ6viwzxIwLhZQAj82y6BdHN5+J9Lf817KjsqgaYvjSJMETBEMqfhn3kdgL7dTqmq1SrXturKodx26ttaOaZ+YQiNgwMN6rhI+fCb20k7pvV53PtgkAeNiQSq+vkcJHGaQtH3HLDRbHehdJx74xsUCPKwnp5Hkw4hsdS+HrzHZRdYc3LZMe5aAcbEgE9nz5zrVK21DbMmY+14NCQPBsTK+PANP68RCwEAJ/OwGrGJAbzcapNlVvuzOr4zN0bMEjIsFlMCfDMB6x9LyfUJdr4lqe2uqPzVLwLhYQAn8WfHqONZ/HJH9SOGy/aNrJawIGP6GZJ9k6I8vHK7lWM8XXjuupBXCO71PEzA2NOBhfVq70jqwvAjS6qXCWOVK7N64Rl6PEp8mYFwswMP6tHG1n+qX/TSSh2mkkm9bW+RxnUVEwICH9Zo2LBll7VrGfr3/eW/9k+V5eLsVPK8GxoYGPKyH+7BsCMxtFaV0tbB0W3d+wjMSLhbgYT0Qg3Vp22O7Bo4hydYPmqkRMOBhvUS/ejj8a+sajtW68q5EtvaEfLG8fuTRM2tgbGjAw/pIt7L1W+lnJpTcduXy6GxNrIFxsQAP69Gejn5IUMIy6DD2b61/cryY5AsChr8d3/LODsqdkcLwMBy3YlndpmP9g5Tp1BoYGxowoT8/A1yHFexS8Fr8rL716tIfIC2etf8MFxoXC/CwTrd6yO5BybrHo6v7dR1YsmtQRsCAh/VLWYWnuyfgY1/Lm3y9LKO0sHB2ooCxoSEFvyUX79hZ6WF2YW3DsqFjY1s+632HtExOoXGxABP6M6XvvhvaxpGk0k35165rOizikanPSAgY8LA+pWIb1sfqHcHLElZD9wPCPjkCY0MDHtaDM0ltvFDrFFJ7Q3INBbC2FyfbvlRBwICAX9PHYQePwt7MaD9OwCW0UE+OwNjQgAl9N3f2oMQ46WvL0PQc5eyroKX8T1gpmq/PxwgY8LB++SjwYdnb2jl0dKy1/VfAO/9rponFOxIg4LtPSKXLyoscL1Wu1WF9uUbVbg7JZDnuvywXhGcKGBsaMKE/7V4Njc22E7wd/KAV7frmayFgwMP65Tr2DzReTGlr3ZWX8d9+FFF04nEzbGhAwB93cUTr2WXX1GHxuNn/2bt25MiOHDjShBwZ8uYSPIIsHqEd3UdHkal42EDIhjXH2QAvsf3qC1RVN7mKet01j5mxmmGzH2lsdA5QQGZWDbC01436XB0GgQEMoZ9BaOrpyH3qjvMhucm0zF8jYQwNYIb1IUMw1UIc7ktRy986fqac4+F/Rfw28+wzMAgMgMAf6qNd50y2/qrJ6yD7KF1PwdQKKueegbFHAjCEfmeNdHdFzMEvqEw359ZacjsOOAODwMDzocvOnqU00WklzK3CQw3b2ZTi9kZDqYrpqQS+4OMDYAj9ESVW99KsjfrkHWpV1GlYTSAwgCH0Y4nLrqUWqd310FWoRaQl3eXe+9tTCYw9EgACv3v8ZaOETDPncVa0anMI1jK9lpy3AwIDGEI/VVQpjtlXYusOc9uKlr1v2h8F0lOYaNFUAmOPBIDANylL5VZgzcZC00DTqG6rD/IYtOQgMHAqLG5l0DttNsV7RVVcOtaNCI9sYppL4Fd8gIDnQhdunKmpnnRzPL2JmtEWmQdS6c6XBQsIDJwKyx9/k52BbHYsDUZYlMdUnGi8992y/5Fa8XhKnkvgCz5AAIbQ/4cZWI3WWbrntTkZsy/bNFtKCQIDIPDNoltYTENdpfTXFbrbCl0LnkMq50opsUcCMIS+uw1mr5lUr6KMy2HN0km16mf17bUeMoUGgQEQ+D09liYhtLK3/iaWa3sVQ5JjBe7vwy1K+mieT2DskYDn4mX5IRa/e0qO1CZ3OaGTdRRPvyqDwAAI/Dgr8JjP+x9vA90lk6/Hof6SbaJ1MoFf8RECnomF589OkiGFvzT2+mur5aBxqjQIDIDAD9FR1lj2VFXZZ3EYg4MpzA2bbXqWzldigcDAU7HqGrgZIUvnK/QUpXCBmXsgF+CsyhKJ94RPJvAFnyEABL5z+nVXhXY73zbMXbNsyz5HttUGgYETYdktkhT1cluTQ98sJpKSNqaQPUlmWMU5MFqqOSnk6kwmMBbBAAj80UG0bGxHWNKNqJoUSnFZWfFtEBg4EdZfA482wVz4Ks3r4U9pCckSnWzoxyIYAIHvjLI0CiO1WynVO4LdoTeVZuaW1JQF1iAwcCKsWW75A0lZ0jzLXirtFNBaSS4gMAACH25i4E3rrUaNJFINW3uC11yd/Ssi+9x8OyEWwcAz8fPCp14dbYbDSsgdb0shlnsTMAmXjW6zc6FBYAAEfm8OrTzQd2Qxh4RinTLsJGs47JRai2AraDpmE/iCTxHwNPy6LGu3RESNhVPV8JfsvQzN4qgE67iKLDWsAwQGQOBV1JbcZMzWuB0NviTm+sYu42ACgYET4WXJ0+8tIUfjUtKinSSbxDGYiVmn0mwCQ8kBgMD9OFm1ZXHyGyXvQjeD1vgjkjvozV0Avo+jNQinQWDgPNAfoln2XiSur6UmZAm3pkIOsyyhRgMym8BYBAPPw8rj59QcU75qsBdVaoy5ImqSsiReJNrKog+43AwEBkDg7phbU630piRabxXr3uHANWyWiUBg4DRYcQ3Mowhoyk3xZr6g+kKHpgeq/yRIzqedX4Ff8TkCQOBxOaa+3CqNGO5jcxJ9NQygi68h/iAIDJwGy66BlXoLg/ihtMRRdZJWattf6zaMy1IFgQEQ+FGj5/o3e3ZqTb6ixp6UBJWa2nEqCmoN359O4As+R8CT8PvCIqv0N2+3OuZ60BWbuNGZ+ymrMiOnQWDgNFjazm+3vzHbKs23NJ50qRFfxerLhfexrbbjrnDFynQCQ8kBgMAua2NroyWbJXAvwuKbIVraXFW4/QMCA2fBmt0ztVyUgT6aLacl/xy7rVP8c6/VEsfRBwS7g8AACGxLqwySrqzSyuR0hDOt9IfivbmWFORufYb7d2R6BYaSA3gSvq5t5L9hShKTqCMmq+OWh8lF6hzQQoPAwJOwto6DTYbO0Clo6mtaHGt+3C+WotMh3awEAgMg8GM8wWTy6ah2wkSGveHesz0zh3KgTr1J1PTcKb+SaftzOoFf8UkCnoKFdRziemgx+17qniM2j+lmCndRUep+t/dBU2gQGACBR2V4cPjNvFZzjbe0LbZWsVYs1WzUl4IKDIDAB1Zee6tCP5OyWitOHCX3Lg3sh1KGWXpAC33BJwl4Cl7WPPp2Iua7TbaOTEzFxaRZvaUpeRYEBkDgw7ZHOiApNQsh7lksMQlL0zRayly6Lo0p9eQCAgNngS4+vbLVmW0StBSvML/viShEpjDUmk9gSLGA5+BHGEHX+TOXQZS7siFfwsBWn+XPyWTLOAgMgMAPOA2LmT3lTjm9IWZ2ReXAa7QdnKqucKy7+4u3SGUGgYGTYFUlpQYHgom2u+sZHriIU2FmX4qT1xAEBk6Cn5erup6ZsvmkHCntsqbptFK5o0GidVBqkBaZibbWidh8AkNLCYDA/+KgTO8V6P1ONC16y72xvv71HQQGzoHFdBxMN/a+tJmwWaVR2Y6JHSUSy6+epPTV+5sgMAACH+8JtqIqanroZlYtZRidWEq81UuCbf7dPhj7Mp/Ar/gsASDw0CeoVNSTahIqbfq7WstDcQuPojxCMQaBgZPgZcnqW/Ml202wbLaw7iROqmkRa0GqQTr5HdWSFC0gMAACP2QczTRwM/Tfk0ZHzXWJHBpnqjHv4ccOIPAFnyXgkxOYOu8Rj+JxzB2jGlVWvDnjr7RKLrMc1lC+QWDgJNAF2+ds3tWhXsMNpwrhtXs0SyolVuO4Ukr/A4GBk2D1OKzs6Zds2ddcXrX4Dc3qSNMb+QWZ21hqfRYQGACBjxk+8x1G653G20XvpBKcQ7DSHliykpoOIDC0lMAT8HXVyis+P0fsm1T3SYWt5I7LLB3Bww3C8Qysf4PAwDmwrpKS2rMxe2OvfVcrsY3PMH/FW3MbOIHAAAh8HHWpqiM9Xcn8pzWjsroMt+zZL8ajsBY2dgjaX1gCfwOBgR8Xvy1Wc9W0yuU/4wakOnROuTlvtcXWSE+7C2Zbp98y4Y+owBBDA0/AskrKut4djarcvIp9U02b9T2Ec28x/Ic5mPIRFRgEBj49gdkeXUfROmQ6afWqDrEvyG+Oipdwf+76c/8BgQEQ+KDCyz1zmWlzMqt6s5khsd6o1uxUmfuDfx1B4Fd8moCH42VbHMaUxK2UsrP97iMrzVE6urfOzCmYJxZgpdBvg8AACHxoIy1dKWVjSXJWfY0q6DKSlk5SzbuOK++R9kkYCAyAwIflYZVNkTS+BCKyTiTdzE3g3A6xRsVc03QaBAZOAl2v+HbuBRnuitNCKdRWbm9u4LRhCjeZsT8Iq7uccB6BL/g0AQ/HSofd5guVymVpFkW+S5Z6XBZu+C85DEuu3E3WBgGBARD4gAl0e/rVZoXEJlNHC7llULXjxSslkcepQ8SmyoLAAAh8RCFuS6x2Gmjq5R1sGCubua9BbQQPCAycBGt6GdiKq9pazJ1CupiGQ6OtZN38cTrNacGUvIoMAgMg8GGRHOxHym6XxDZftjLS2o/UVW3e2D0gO8O/m/8LZvEXbgYABN68KKPldrIwtJ3zrtewiyPyLTVnExJlWn8BgQEQ+NhcLPM1u7G0PyoTddTNOizZuqNwGm2BwMA58OtaR18jstKeld6pxN34ijqnP9cU+DDj5nQVGggMgMCTvcA8KMNlVaRaSigV3zB7I6GJzuGtXOWQTQxS6vG1Nz+EwLAjAZ+7ApehFQ0aah3semOX7J6uE64UZacxISucniXc0SLOzw8CAyDwIWlYSm0zLUaHxVRND2quK+RWCE0mUCv9NhAYOAleFuOt2uWROtsvk5FXWVJrbLRFapJ0LMBSz9RaxtD79/8LAgMg8JF+pLsirY88RiYXq5Fh+UCOn0BgAASezmIXE1sLLpvDL/m+uInWqVcLB7sSWZXXX8cQ+BWfJ+CTErisdVV7hWQMosuElGZmVaxI+3zKLpeIrAs4GAklTqhBYOAkWDRFp+uStZVDh/qr5UQsZgucrxINR2hNiQDCZsYFAgMg8EGz5zqpKuFWjtxs3ISRrTo8R7tCnXyHFCLzyJmRQGAABJ6x/M3Rr1srZGZjUTKTKfOcu1+U0hFZG2lX/gdB9CgCX/B5Aj51Cy29cuPGmPqtrcxsyriYMzDFJTFFTkdeiyXwLyAw8MPi64LHX/MFj6TNI8lluqhQ6tDLpGTZWXX8/d9BYOAUWNRNqGwD3uPA6q2+rsl3JirWyytz/51kHLJ/U6Kd8PrlFxAYAIEPmWE1p2C+KeDI+kip8km28qy6l1JnadrLMAgMgMDHjKBLB3zDpRQrsz3q2lJtZ9DC2QbMqapHKrO72mwmgeEnBD5zC62hbgrf43eWObc50OXvEBNdM7NE3L8CYZy1gcDASbCKGUmH8yzxCRxiJ8z7XNnkZZXbQ7uaLZzPypqNTI7A30BgAASe20OT+zpeb7Yfh9Vvhr11WNtbz/I3ws9fyztxLMdOiAUCAyDwvN0R+165OdzS4LQcWEzNkCvWZpFG4LUFS/8GAgMg8LENtVhqS6eOrNoraxgOaklyhZlyyc5m4v0b/xxEYPgJgQfj98U0HJxym6urkLvtkmmbqV88bWUMlq8xZJ8LfW2m/wSBgXPgZbXKe8Osr4MoaOnTsXzCHVlRh4RrCeMvcQT+AwQGQOC5c2h396C6t1UlT7Gke1ps763l3Kzm9+6O4S8gMAACHzPHst7+rlEmO39OGkpuF0dabf3BPxjVk/GG0egVBoEBEHh+CdZe0KzNGLmcjtmlvbPZFacLWUQc5xOTwy98A4GBk0AXqb5SE3LapjpncWRGGsLGdppMCICOrIcbl5T38IzTcfw0k8Cv+EQB/2PvWnIbuXaoOoEnGWTmTbwlZJQl9MT78VI8DIoGX4+ZAPF66C084EV1v+S9t6RGu0qRq84BGnZLpTJk+Ii85OHhTXGXLaTLEi1Ncqum3GU2sjC5aSXNMTsqNXUCgQEQeH0VluZyE5sdKdn0yuw10zqB1ETyqphOp2AJ0i2pCuvOEQsEBkDgdWNuaibpFbll9dkRsfot9fcldvP+czYNAgMg8MbgQY1as7skd1ROVhxzxYpSvzeVs7Q2ozTd+Nn+Bh5AYAAE3pLG0UiyF3JEgx0xbju67BKgseHEnRALBAY+L+5lHDiOBiq7RLk4uav3xGp7Ttxl4xQYS1nBxVmkdT4Mz+fht80I/BV/UsDBCOwFkeR2eUsTS7k6ZqX+rplC4tgjkkxzLStGo7ijtJG8jgMEBkDgtQeCzZ5CdsKrwYhhrE9RE4Uln3qletUGzRbxn+5X8AgCAyDwx4+66jVWft2CsBlP6hzs2Ks+uC9zS1JEa2eoAwIDIPCaSXQTlanVWPaT+933nPNmjeuSiAKDKd3pFQQGdoJf70+FxQutJDFjhVoqXFpy6Lx1IasxWYbNY2Gv4wCBgU+MX+4kAPNINKl5dF+txw5f1IKko7JQGuDn/M1cwzo/Su008KqzDPDUAY5HYD+yUEzoHMGlXVAW3WOT+pKtUMMY8eRylorWPrGCwAAIvKpSo/R2wxYF8kVldwGPq9ZinLLeFyYUtfyMEwgMgMBrZ9FyMS12ZWa3XlSMgU46DM9bvbPjDseNwiw1WrvfwBcQGACB1+n+tvwVP9MgvuWrWduhmb+dQDoPLolRX/q9KiAw8Jnx2z3OA5MZ/KVam84FZ+vSwaPPgKzTaseGdQq+dq8gMLAX3IujDpOvQl2ZOIxM1rh5RaqrByUvu2Jml4WZ75NoOhDri/sNPIDAAAi8ThJd6kzCPFJ6RJmzDcYTe+Ull10NbMXVtTwtbRdpXQLDFAs4ZAR2ooxhAObsejWec+A8tmD8tbILhyTdpUYtNQgMgMAbDu8nvQalIha5NQyShg+b15KJwnOtS7l466Ql4GFgMWTq/jfwCAIDIPAH/XTcIiManH55THbKpebRCZliU1inSucgrgaBARB4PfpKY2HVJMYDyUfeeaQDxrN9DRntliZj92YWCQQGPjP0XgaBXSB2B1wuowlax/btuhWZsuVOWorG9fsy0RTmE2cGiy9CryvEAoGB2+KO2r8aaEuGwWSf7LJqLVP7JpKzNe6YDfCI4oP1I+EbCAyAwBuNA3NdUVacOLgGZnIThX2qrDWUk7HySDYB5xu9t10kEBgAgdcIvy2jefKJsFmLpGTMsKhTUtflwsbovewUborQX1Ym8O/4mwIOmUKH0y1flmBpaRRNZIJ0UWKxlU9zFnRw6TrNQ8EEAgMg8E0T7BB1izZLXZSl0e7vMH9UNdHFtXZ+qClCP4DAAAj8wzFXrDV7E3KpH1eSrgecHmZr7KH5UbfqkGIF+wUEBnaDn+8p0NrzsM+lWSbXNaoms75RrOkjgV2jSbOiMlD+GQQGdoOf7oO6M+nEkJRLzGyOwZoaRnpFQ03Z2T3Vojnm1PO/N/8beASBARD4Q1FXapNItfR9xOkmc+uI2rlhsgflyfSSZ/oH3ywtDSqd/3sCgQEQeMNWsHuEs8BDpRx6tbpjiYnQVAeDfU3rvXajqK1hgcAACLzmINJko+q0MOKfC9FSOOuWKWmMt0zOp/KcRp8faGpYa+s4nr7ijwo4WgSWJUZLU40ejAPrZM7LmrLoUtmes3KJowzpgWcQGACB1zfjkKVhfrKXzXpIMYHXxmjmrMTMxhwqdWwp8P/8QFPD+gICAyDwKvmz1FqU861LygxavgsbLUd5IbF5YbHzaHRYIDAAAn9olN+Up7ISo12O1OqkNXjlcAqzrbYj7wrO945C6MhfobaG9QACA58Yv9zNMGElbKSoNpLJaEjXJdlitgeX4UKlIo22yo9ZDvICAgMg8MrMpfETWrYQ5ipVttuQ6hkd9FdSp5ZEzAhhaAOL9cxqa1iPIDAAAn8k6H5PiYuMcw4vNI7nVWauqiVllZLMJJbA+hMIDIDAG/aTaOpm9XXYcZLqyqFNRs2cTABMQzkqQP4AgQEQeD2+UhIryznGEi2GadP05dbKfapjDWJPw6kzJZyL0POPa4/Aq7eBQWDgQBGYRwZY0vlTyjiz1jrwUI2iiwMP1Zx75i8FV7znzQmM3SrAcVNou+c3ElAlR1Pn7azVWzblzRRz6TwNIZJmg8l9ELTv/wsIDIDAH9JgkbPGoUvU1naFqLTnYf+E5GgsIf5KfwQGgQEQeB0t5eRUWNWxne1VmqUbKoM7CFV/jikrLlk0F6mn7gj8AAIDnxm/3Z8hh3Q6Sy6KaC2N3qlO/3Kl7iRZ7kG2LC1pSribZACBgc+N/9zTMGHJgXN4VfsUt4Ydku+QRc9slFk6s11ruUsCqbv3/wgCAyDwh8ir2SHWGuNQF2PLhpRcppZsAW+e8aP9kmw4omRLBkfg9YvQIDBwDALrNGj8StE701TFkH2+zeQDNNscnM3wYf6UCI/JCwgMgMAbRGJZMNYxEqs63Ns8RTbNpqyZPn8SpK3fqXA9f33bvggNAgOHIvDylK+YncGycPWcIYfTbpzk13I1pYp1LF6lS+gEAgMg8A0GGrib85fk2KHWZdKVrtl1hCl+BORhpCDG6jPoBxAYAIFXqGVRHg608db2fUeUV985nutgseRVhZU5mQ4K6udbEBjrCYEjENiO/vliFtXiU91ZqLY6dWa1SHdiTqG2tI7ejR461rz6t/8IAgMg8A+efO14bw7BXFJiNuu+uXHXsQ0nparb4BrTz9znamYXLn8FgQEQeP0jMNl0mpZEWqN+knA57EaDLPF7ViQbzepcxP7Wv/0nEBj41ND7KGHxNZEWTdZMp2knN58Cs3ls3sESuJv4fLpFERoEBo5D4Cuy6CyerHGZTemZW9orVUlW2oRUfQOEX0FgYHe4EzNKw1h2HWAVO3eY+73RVZZ8sVr6yE083yudpfsa9CZFaBAYOASBOUsmNQ8MsfODVnWGHKrTgOvz+iOWYuARFiKFe74n6ieLdxkNMmxTwwKBgQNF4DYSj4VZLJ652h2V1SxbYdNHCkl1KEK/gsAACLzRDLA2vljcPJ6bwjJUb6npPbn2MNWalw4y6E2K0CAwcJgIzKMOsbZPs5vqzz1hdkvPii1PsNGalyXRlDvLMr3zRKcb1bBAYGD3BJYsmKShGFrZSCyr5lm6uEzpVip9pzjVtd5ThH4BgQEQeLNMmmoMDXwruXAzqU92jkGsnmvOsGvHSevBOMoo3043KkKDwMARCExN6yg1fJuDrebAy4tZt3qxh8QGMRuN5nx8/uN0qxoWCAzsnMA87Cddni/MLjn+ZRp2AIs2+XcQUofnwxTiXMN+vh2Bf8dfFXCQKjS3vK1CqxR2qWsyEfcaLLKu7/ZTQOIPERq++ScQGACBf7jta3u2ybe9GFi9p51J6ucZ7GyS1ONy+MLEnA7SFFUdRdE1fTvdrIYFAgPHiMB64VA8jab2JSbEzdXN/yXSllPOrRI+DU4gMLBH/Pwv17B4OIfkm0Uydf0mdiP85Araau6aj80vwzf/AAIDIPAKVGY/V8jdFVWzQezPyly6S2p3kMbKloZnmMYBeKMaFggM7J3AzdyQFlM6ba+T3Fuils/T5JVY4fjLUf8cJx/SIDAvBeCNalggMHA7/PSvhV3qO0ZUHDni2K9Y0w6aXKXZfCtK7v/ZGJrn/pGMvbA2PAKDwMD+CdzTkIfPqPiph7m2HMcMJTnplCZw5v7kre3OMfwFBAZA4G2qzzxKsLllbZJDin2tqX/5YX4KAug4Dqyjpd7b1rBAYOAQEZgs5WTUPeoZ3ptu5FIWpaRcImc58Z2Zxj3g7WpYIDCwcwKL/0bLmL5wbvsmRbNMxjRa++6wuOl+aupa6dGl9/4EAgMg8I+efXWYU9NQDM3JLicfan2vKTrpmNK0Rg+PpLF+Pt32CAwCAwdIodW61+licUu4SaipCeWUqSvp9My5Wxx94OX1dOMjMAgMHKYKfUEn3Ss67NRSYL6483QdYOBQmU4D/ScQGACBN+geSVJdJbmkcFffkiDRmn1hmauTjvXLciOGYZQhl7A1SUC+Lb71RxAYAIF/fJB/WnSWjB0gvlIGS1F2XoCkylx9dOxdX5ff+hMIDIDAK6TLsmBpt6D1oIWhfypdYI3jwXyhAr1hDQsEBnZPYLJWsPWLuooWD3gsNfY2S0nZudlFGw55O93+CAwCA/smMLUNJOGuFu1GjZIcmkeG7lTt7WZCixjrjgsH4A2PwCAwsGMCU5FGdiZXztaKxeoqdWos29NZN3q9i3DVhMQto+Hn/HXpnT+BwAAI/OETsPRxWYwDliTVc9VdMttrqc+hKXWL+fXSG9/uCPz0FX9WwF4JrOWLk3DQoIYlUnpGPLnV35pq1Xb6KARdraOEcpm/Gx6BEYGB41ShJ7t20Cwg1Os+s+4KQ+40SHiZvxsegRGBgV0TmHpBtJr9C+oHldpGEdtadd6sEktXwnUG+GL9atsjMAgMHCAC02JjidvAa6yutI75S3KwS/k0MxdFNF/sH219BAaBgZ0TmJtmb5skq9QIW4aMcp7MPa/FDvnPYfi/V9/3AwgMgMCrlaBlxGfNYg0qwwpkXyAp9a5rk9LTb9ff9xMIDOwBv958iIFqG1fsaAI1CTUlinYRmsr2wppSz8pJDYSf6Dvou2kGDQIDO47Ate/759//v47vucbgf2//sHfvSJEkSxiFL3BLQWitNsESkFgCws39sBREjMByWg6J9eQqbjf1LgoGiqrM9PTvCNMvM8bSLI55+B+vr332jMBQgY9PsF4H/uw5gUHgI/ln+M9uCAwCH9UElxF89QWBMQ2u+y6/j2P46jmBoQIfE2C9juKrGwJDBT6Ccfh7QWCowEcwko+eExgqcNT6e+4ZNIExzQr8MJJvnhEYKnDM/LmHGTSBMUWBX8byyWeOsAiMSQo8mk+eERgEjtoAnz3CIjAmKPBoJtDnn0ETGNMTeDxfPCcwCPxNficqwATG1AR+Gs8HzwgMAodNsM4fYREYUxM4VwEmMCYmcK4CTGBMS+BkBZjAmJbAyQowgTEpgbMVYAJjUgL/Hs3HXjQEBoFtwiIwRsL5D/Q/ZivABMaUKnCyBIvAmJTA44mw5gQGgcOuIfU1gSYwJtQDl9F8aUNgqMBhI6yGwFCBw86g5wSGChw2wurTXwJjMhV4JDPoWUNgqMBRH1Pptf4SGJOpwOOYQTcNgUHgoDPoi4bAIHDUDLppCIzpcjntXRxNQ2CowCFn0P9tBoLAmEYF/toMupkaBMY0BB5lxERgEPhEi0hT1JfAmIjA/9oCzxsCA2MV+DVb80tgTEjgktRfAmMSAr8kbH8JjMkI/DupvwTGJAR+Tepvc2dYIb7AJWX/qwJjIgJ/1gLPGxUYGLXAn7TAs4bAwLgFfs3ZABMY0xA4aQNMYExC4KekDTCBMQmBH5M2wATGJAR+yDqBJjCmIHDaCTSBMQGBn5Im0ATGJAR+yVuACYz4Av/OW4AJjP646jfDmhMYCFCBExdgAiN8BX5KXIAJjPACvyQuwARGj/S5D2tOYCCCwA+JCzCBEV7gzAWYwIgu8OHrdBoCAxEEPhhCz7IIbFAhuMCPmQswgRFd4IfEERaBMUmB5wQGYgicegZNYAQX+ClzhEVgTFHgOYGBGAI/Zo6wCIzoAj+knkETGD3S9SPwnMBAEIFzz6AJjB656WUn9IzAQBCBn3LPoAmM2AI/5p5B/8+gwsQEnhEYiCLwQ+4ZNIExNYEbAgNRBM7dAhMYsQUuuVtgAiO2wE+5Z9AERmyBX3LPoAmMPrk9/yrSjMBAGIF/7/8v5gQGzsT1+VeRGgIDYQR+zd0CN/cGFSILnLwFJjBCC1ySt8AERmiBn5K3wARGaIFfkrfABEZogR8JDExH4BmBgbPx69zLwHMCA3EFbggMnI3LMy8Dp2uBmzuDCtMReEZgII7AJXsLTGBEFviJwAYVpiNwQ2AgjsCP2TMsAmNCAs8IDJyRq/Pex0FgIJLAD9kzLG+boVfOK3BDYCCQwOkzLAKDwAQGhhC4pM+wCIzAAj+lz7AIDAITGPga3TlvxEror3vdEVjgx/QZFoHRKzcEJjAIfGgn5YzAQCSBHwhsSGEqAs8JDEQS+DV7CE1gRBb4P+kFvjek0CfX5xP4gsAAgQkM9CLwU/oQmsAgMIGB4QWeExiIJPALge8MKfTJCZ8nLM+POz+6ITBwZi7Pd5aBwEBcgS8IDIQS+IHABMZEBJ4RGCBwLIwo9MrV2QSeExg4O2fbCk1gILDADYGBOAIXAhMYKnBoXMiBuALvvIx0QWDg/JzqZve6dxiJwEAPnPBSrB2BZwQGCExg4PwCdwT+y70BhbAV+HH7584JDJyf21Pp2xKYwOidaxWYwCDwvsA5N2LdGVAgMIGB/gX+vfVjLwgMBBK42z0OTGCgDy5PtZHyuSMwgRFT4HcXciQV2HhCQIHLe4FnBAbiVmACA31wwlvtXglsPKFvTqVv3bmQI+dGLIeREFDg9sCNOgQGIlXgSmACI/AUmsAExgB0J1lH6vYEzplh3RtO6Jubs1RgAgOhBK6FwARG3Ar8RGACI6LA7TuBnWUA+uH6VMtIBCYwAgpcDkyhCQwEqsAdgQmMwFPovaeRnGUA+uFU5wlbAhMY8QSuh5aRCAyEqcALh1/SC2wrNGJOoSuBCYyBOMlZ4FKeH7d+psNIQASBt0owgQmMoAI/E9hWaMQUuCMwgTEcN6cJoQlMYMQTuKx/IfCdwYSAFfi5/ePvbgptKzTQE7c/Mbc7HGIRGOiJE5xmaAlsJyXiCqwCExhRBV6G0C2BjSUMwKUKbCMWEgtc2z9VuCMwgRFO4LI5D7wl8AWBgZ64+ukmjmUjTGBjCUNwmha4Sy/wvaGEYAJ3W0E0gQ0lxK3ABL4zlDAENz9ZAG6fu0pgAiOewFs7Kf8uJBHYUEJIgVVgG7EwHLc/PcawmFATGBiC658uAi9EJjAQR+A3a+tiLWl/GWlmHwfQF79O8roogY0kDMLlTw8T1v17oQkMxBB4M53OLvC9kYRBuDr5MhKBgf74QevbHUyhUwp8ZyAhjsBri7uuvFsHJjDQH90Pn/a2jERgDMjNkdW3rMtwS2D7OBBKYCEWgTEObn+8Dvy8exqJwEB/XKvA9nEgl8B1tYxUD9yJRWCgPy6PXAXuVocJ26IC3xtHCCPwodUkAgOBBC5bLzPsPfCdUeA74whDcZIrOQgMBBO4SKEJjMHpflqAi73QRhEG4+Y4dVc3Qi8KMYGBOAJvZtGtKbRlYAzJd3dyLBaAu9Ucun37A4GBGAKvm98qxLIMjIgCv3+mkMDAMJziWrvkKfSdUYQgApftINq90ATG0FwduQe6vElcF3lWboENIgzIcV3vdkmuBAbCCFzePW9GYGAobo47QbjzN6kFtgyMQALvXk1ZVGACY1Cuj/a3Xb/RkFrge2MIkQT+G2F1ZbUhq0t/LzSBMSS/vr0O3D53bqW0DIxxcHnc+hGBCYxoAh/OpZO/D2wIYVCO38Wx/jOBgRgCd+vbKJ+LA/1WkTA4N98+DlzWN7ovF5IyCyyERhCB67v7KIvjhATGwBy3k6Pd/l1mgYXQiCNwtYxEYIyLyx/V3z9O19QCG0CIInBZ7cKqi8P8dVWSCQwMxbfv5Kjbv9bkAltFwtAct5OjblSuBAYG4+bYEvxsI0dzb/wghMD1o6MMue+FFkJjaK6PSJ+rZSQCI5zAy71Xbxl0WdXfLrPAhg+G5vJbzW/b7sZZNXcFNnwQR+D1PLpd1OKuzX4nlhAaw/ODfVjZe2AhNEIIXD51mcDAcNx8sezWzU2yWzdzpL7YXQiNIALvFuF2ZyKdV2CDB8Nz/d1lpMUycPsWYtXUIZbBg1ACL5aRur3FpbQCC6ExAi6/Fz+37/ZFExgYjqMe+e4sIwmhMQ6+Xn+7jb91U4vTCiyERowYumu3Cm9btjKt2hIYGLnAm+a3bibQbfoptKGDKDF0Wdff7fyqpN4LLcNCGIE/21aZVWAZFkbBETfLtttzaAIDA3L1hXPAyxeRFn1w3V4N7tIKLMPCODj6ge/6ZnRWgQ0cRImh2+f9EKss1oITT6FlWAgj8N6dst1OqEVgYNQxdF1Yu3gTuKwM7nKHWDIsxImh24/a4LwCy7AQQ+Dy8d91id8HNm4QIobuVr+s5s1ltxi3BAaipFjbBbhbTK1zCizDQhyBu81/u72/bpMKLMNChBi6bEfR7VsevVwA7nKn0DIsBEqxyifrSzkFNmoQReDd0Krbj6YJDIw4ht5fDi7b/mZ9H1iGhSgpVru9clS26m9J/LiZDAsj4vYLc+e6/m3ZnUSnFFiGhRgx9EbjVQHu1gaX51qSCmzMIEKK1X64BbqmDrG0wAiZYh2yOaPAWmBEEnj1IlJdrwnX3OeBtcCIEEPXPVe3/6Gu/kxgYLQp1mYDR33fAHdZBTZiECPFWtxdt/tCUtmt0QkFlmFhXFz9y0n++v5p0eXBhpQCy7AQJsVa3mO3Xgju9vOthAJrgREjxdq9Emv/eFKXNcQyXhAjxWo/kLimfp1QC4xQKdbeE6N150KOmk9gLTBCpFjLIwylrP9QD2yyzCewFhijo/sghq6HXvje2aCVT2CjBcFSrOeu3W2Fa+K90FpghEixysHjC+1S37whlhk0oqVY3d62jroWO+E6sMGCEfLZElL30RsrbcID/WbQCNME19X9z+XQ8aTFJulsAt8bK4jRBO9v3ygHf5tNYC0wIjTBdW8GXcv2I2cbtWs2gQ0VxGiCD6dZf580a/9eaNfmrMBaYIRpgvcv42jfLTTlOw9sBo1xcvvpxe71fV+83GKZTGADBePk1+EbseomsaoHM65cAptBI0wTXBfFtl262h26LyvbRo574wRxmuBDE+qynFKXlKeRDBOEaIJrOXA55bLrrZtl4DaZwGbQGC2Xn10s2+1v4cj5uJkZNEI1wXX7Bsru4JQ6lcAGCUI0wd27xxm653XXu1I3315oM2iMmOuD+zjKqgx37//tj8FtJoHNoBGnCa4Hd18tjK45n1YxRhCsCd53d/dm95JLYDNojJrbj7ZcLafR20tLbdumS6HvDBGMmV//Z+/ukVtFogCMPsZFMsFkbOItYSKSyQmkTZoqFsCSWMJEU7b1AxLyCMk2felzslcvoSR/dbtbAl39pFk//7nS+EOljAL2F0KoNXQ//g5l387/Alo+ATvCInG/53fB3eljpONYft8Kf/xGQz4B+/sgcX9Ouh3mHqFz9ZCdbAJ2hEXqXq4fDd1P/92dVtNtbt/EcoRFnDV0O3127CdPu8slYAOYGGvo89g9bYDbmW90HL/NkUvABjCh1tDDcPHhUXe4hb97r7nL7WMkfxxEWkOf72G4Xja343seMgm48bdBiDV0/3p132A7vU2pHX89q88kYH8ahDC5n/B8z8LQnhfSU3kEbAATbw09eXrO5Ay6O/xicPs65BGwPwxi+GP0wMnRp73zv0/Y5zKBDWCiraG7y3sKD8fP54d0dNksoX0GTKBjrNdxsbOfAJ8GdCY/rVL7syCKl7ldb9u2t+7zzyBgA5hQx1jdJ0/lOG6K+48vc2TxXWh/E4Q7xmpH+X6M3+F4l/8o7SGHCewEi1CGw3c0hovp206OorvDx8KbD9gCmqjHWOdHu4+/itVNvqu1+YD9QRDMxRee++tHU44+Et56wLW/B+KO4IsN7/VPN2w9YBtgQo7g0Q97v50598ez5/EPnr19IDxsO2AbYDYygj+q7U73Ih3vbth0wPol7i54eH+k7DBdNHeT24E3/vvA+iWmv7rJjfz95Zc6zv+95SW0/S9R/X57pE53/auEx3+/H0Vv/G6k2p8BUb3MfZNyOD+MY/ufA1s+s51zrG5c7fE5s8OGA5YvwQ2TR1N2p3v6R7+R1H57wFax8OQi+uIWhuNPNBxvcBAwpOiv848Cn1bQh4OtYfQFLQFDkv5+vfVg6MNXK/tvfyKHgOG5gmdu7R9+7IkcAobnCh5mfzL4NI4HAUO6++DTEygP39/4eFrl+xHWYAJD2l5ez/WeF9HDeRj3AoaUE/73dIQ1yXg43JokYNgGAYOABQwCBgQMAhYwCBgQMCBgELCAQcCAgEHAAgYBCxgEDAgYBCxgEDAgYEDAIGABg4ABAYOABQwCBgQMCBgELGAQMCBgQMAgYAGDgAEBg4AFDAIGBAwIGAS8isbbBAIGAQsYBCxgEDAIWMAgYAGDgAUMAgYBCxgELGAQMCBgELCAQcACBgGDgAUMAhYwCFjAIGAQsIBBwAIGAQMCBgELGAQsYBAwCFjAIGABg4AFDAIGAQsYBCxgEDAgYBCwgEHAAgYBg4AFDAIWMAgYEDAIWMAgYAGDgEHAAgYBCxgELGAQMAhYwCBgAUOuAe+8TWACg4AFDAIWMNgDg4BNYBCwgEHAAgZ7YBCwCQwCFjAIGLAHBgGbwCBgAYOAQcD2wCBgExgELGAQMAjYHhgEbAKDgAEBg4DtgUHAJjCYwCBgExgEbAKDgE1gMIFBwN8S5z8mMAQN+D3NwgSGiAHXh4swgSFewKcwCxMYogW8u/cqTGBIL+B6dBkmMMQKeJJlYQJDqICn12ECQ6SAd/dfhwkMqQVc/7p7BJvAkFrAlxdSmcAQJuCrKAsTGMIEXF9diQkMUQLeLbkSExjSCnhmqBYmMAQJuJ65FBMYggQ8dymVCQwhAt4tuhQTGJIKeHamFiYwhAi4nr0WExhCBDx/LZWAIUDAu2XXImBIKeAbm9pCwCBgEPDPn2HdPMUSMKQU8K2LqQQMcQMuBQzJB7wTMMQNuLl1MYWAQcAg4J8/hL51DC1gSCjg21dTCRgEDAL+8UPoW1cjYBAwCPh7Ay4EDIkH3AgYBAysEHD9yeUIGAQMAhYwCHjB9zhufJNDwCBgELCAIeuAd4svR8AgYNieSsAgYAFDFgE3n11OIWAQMAhYwCBgAYOAAQGDgAUMSSgFDCbw19wOPH9DsIAhxgQWMKQdsAkMJjBgAoOAnUKDCWwCgwkMAhYwCFjAIGDg/mIEDAIWMAhYwCBgELDnQoOABQxfQ8AgYAFDFgH7fWAQMPBrjafaCRgCB1wvXQ8IGAQMAhYwpCSp+wkLAYOAQcACBgEv6bEUMCxSCBgE/CXf5Kge+DEWELCAIaafD7heeC0ChoQCbhauBgQMAoYtqtI5hi4FDAIGAa9wDF0tv/sBMlemcwy9FzCkH/CNNXEhYFiqEDAI+PlTrPKBh2hB7vapnGJVAoYIAdeLLsRbBEkF3Cxay3uL4LYqkU1w+chvsYCA09gEVwKG5cpENsF7AUOMgJsFW+DGWwS3rfBB8NxULQUMQQKeWUPvBQyP2Kewhi4e+ikWYJ/CGroUMDykSmENvRcwxAl4d/dG3BsEn1njc6TLLisBw2NWOYaeHmMVD/0SC7BWwPs7B7CA4XPrBLy7bxHfeH8gwYBHx8t7AcPDqpUL3gsYHlfuVy340Z9CA1YN+C3Pai9geEaxT5i3B9I8xXrqh5QAAUN8VboBN94dSPcUS8Cw4YBr7w78j0LA4BTLp0jgFMshNAgYnGI5hAanWM6wIMNTLAFD4E2wdwbiboKdYUHggJ1hQeBTLAFD4FMsZ1gQ+BTL+wJxN8HOsCDwJtgWGAJvggUMgTfBzrAg8CbYuwJxN8HOsCDwJtgWGAJvgm2BIfAm2HsCcTfBtsAQeBNsCwyBN8G2wBB4E+wdgbhraFtgCLyGtgWGwGtoW2BYpLAFBptgK2jIfQ1tBQ2B19DeDYi7hvYhEgReQ9sCQ+A1tPcC4q6hraAh8BraChoCr6G9E/CIygoarKGtoGENVtBgDW0FDWtI4Rir9jZA3DW0NwEeVTrCAmtoAxjWUDnCAiPYERbkN4INYAg8ghtvADzFERYEVhrAYAQbwJDXCDaAIfAI9tJD3BFsAEPgEeyFh7gj2ACGr1EZwBBXYQCDEWwAQx4juPaiQ9gR7DYk+EoGMARWOsECi2gnWLD1RbQFNMRdRFtAQ+BFtJca4i6iLaDhOxQW0GAb7CscsNVtsBcZ4m6DvcQQdxtce4khbMGNFxi+ValfULB+YVMF6xfiFqxfiFuwfiFuwfqFn1P4/BcUrF9Yh+9PQmSV7S9kv4y2fIawy2i3/0LcIWz8QtidsN0vhF1HWz1D2IRNXwi7kJYvJKW0doYMGvY6QdDtsNcHklfM7Ih3tdcFAAAAAAAAAAAAAAAAAAAAAAAAAAAAAAAAAAAAAAAAAAAAAAAAAAAAAAAAAOA/9u4wx20bDcCwAf1dgFfpAQrw6rpBriIgfwVwO003mzQZiZ9I26T9PGiBYtedyQh89VG00wAAAAAAAAAAAAAAAAAAAAAAAAAA721xCWBexSWAaWUBw7RSETBM+wBcBAzzPgALGKbuV8AwpyxgmFYqAoZZLUXAMPcDsIBh4gdgAcPU/QoYppOKgGFWSxEwTKsIGF7gAVjAMPMGWsAgYEDAgIBBwICAAQEDAgYBAwIGBAwCBgQMCBgQMAgYEDAgYEDAIGBAwICAQcCAgAEBAwIGAQMCBgQMAhYwCBgQMCBgEDAgYEDAgIBBwICAAQGDgF0PEDAgYEDAIGBAwICAAQGDgAEBAwIGAQMCBgQMCBgEDAgYEDAIWMAg4Nl8+fPr//9ab8uXP7fv/9/XL39YGQh4ZD/93NstlbL/cE12KwMBTxPwKmAEPPkELgJGwPNO4O8/fRIwAp53AguYcWQB107gVcCMJhUBH9zdvv/IPwacBcw4g0bAR7e3XcBMMWIEXB1wETCjLFAB1we8CZihLEXAAmbiB+DTpSjgXwJeBMwwG2gTuD7gXcCMtoEWcG3AXwXMcBtoAccDTuWLgHm6LOBgwEXADPYALODqgDcBM9wDsFPoeMC5JAEzyAbaBBYwE2+gBVwdcP7ns5QCZpgNtIDjAZddwDxXEbCAeYUNtICrA/7rLwEz2AbaKXQ04OXjnwTMIAPYBBYwAn6LgPef/wkEPE/Ay/8CXgWMgAUMAn54wFnADBSwU+jagP/5L3jmchMwJrCAQcAPD7gIGAHPGPC3z1L+9T8JGAELGAT86IAXATNSwE6hqwP++Pvjk5QCxgQWMAj44QEnASPgKQNevgW8ChgBTxnwLmAEPHXAWcCMFLBT6OqAb98CvgkYE3jKgMu3vwWMgAUMAn5kwB/b528HWQJGwBMGvC4CRsAChj4BO4WuDzh9BLwJGBN41oCTgBHwtAFvAkbAswb89x/KsAoYAc8acBYwAp424F3AjBWwU+j6gG8fAd8EjAk8a8BFwAh42oCLgBHwzAHvAkbAkwacBYyABQy9AnYKHQj4ryu3CRgTWMAgYAEjYAFHAl4FjIAnDXgRMAKeOuCbgBkpYKfQYAIDAgYEDAIWMAgYuF/ATqHBBAYEDAgYBCxgEDBwv4CdQoMJDAgYEDAIWMAgYOB+ATuFBhMYEDAgYBCwgEHAwP0CdgoNJjAgYEDAIGABg4CB+wXsFBpMYEDAgIBBwAIGAQP3C9gpNJjAgIABAUP3ZvaGf/0/7xLwUvNcHpf//rJ/WIdcXz4NK3PZ3yPgH35h612+6m4xEvVTAWW79CXuGPBAp9DlHt/r5x+g542B98v32sLM5R0mcPr3hVrvcv0NYS7f/q9VsJR3CDj9eqHWu1x/BdOwKC9kUN4h4N9eqvUu11/B1G59S4cVlO8bcJdn4NTa99LlVld5/TdLk0uPv1dWUCrDT+DcPtw+u1L36NdJFm3rJ7Iug2+M5oPhmkqNcMCpQ3G59B+Wfa4/+m3aRJd+Aee7BNyjjYNby/rk649+W9ZlLmNP4KXLdCv9h2Wn68+bSsFOTr7MqBN46bLrPfyFbXe5/kYw9Uc/l0fAUsrQE3jpMt2WHre66I+6WaRc2xMGkixl7AncJ7ncP7X4zwmxVNbIlxlzAvd5n3Xpn1qn648NdMsIvvK7aB45gXOf5HL33W7qc/2xgW4ZAUspQ0/gpU9yS//dbp/rz7uqC+V0lecy9gTulFwuvQ+c6n5OI5iGDfT5Kk9l7Anc672f0vvAqdP1xwlW0x6uf8BdJ/DSabql7rvd2ssff7bGAK5f5YNP4F7Jdd/tpk7XHwO4aQ839gROnabb0v3Aqf7yO8aiZQCfLKCxJ3CvB8zce7ebAtffHpqWAXyc5dATOPWabt0PnEqv648B3LQsh57AvaZb6r3bTaHrbw9NwwA+XkAjT+DUa2bm3sMydPntoWkawIcLaOQJ3G26dTrwuziA7aFpGsCHC2jgCZx6TbfUe7dbgqxYGgbw4QIaeAJ3m26587BM0evvIZh7LaBxJ3DqNt16D8vo5fcQTNsC2mecwN2m29J5WC49rz8G8GABd5rAS7fpljsPyxy+/h6CaVtA63wTOHebbp2HZXwAewjmbgto1Am8dJtuS+fWLtw/PQTTsoM+WkCjTuDcrbjUubULl99DMPdaQKNO4H7F5b6tpYMfyEMw13fQ29ECm20Cp37FdT5wOr6JeAjm2kDZjwtfJ5vAuVtxy+eX60prZ3+WevYQzIWBsp6ssW2uCdzxrdt08N1TvLV8tgXIAiY8UE5fs881gUMHTw3FLeEt+fnrs1MsggNlPV9Dc03gjufGx987tfz26U9e7hSL2A56rXjVVAHH3rrdgzuWs3vdGprn67V7LHbQB2sjVS+g/gF/8ouI/Fy/vwfsV06xTq9EaKIvVS/OAqZ+C7dXDeptpoA/HWHxP2g0n12uJTLRc9Vrk1Ms6o9k6kLf5w54jz1CHNzJKi5p4Kuttc85TrH4/dJY6144d8DH58aRPe9W8a3Xhq8W2ifhEXirHdVPDnhvCXi/HEequAy5+oZQe1FvjqGpvLVXF7FOPIFP4gg8tG4133uv7bK+dAHz24Wx3hoX2wwBr2f70/pHjrXb48bh910cQ9Oy1CpnzxwBb1fPAX597d4UZq5/9nYMTcO++Hercp824PPniOpTp63lsi6BXXESMOfLYotM61kDXq+f5P1ywZpGa+Tqh95d5l0fgTu8ePhT6K3iJKD2MKn24XavuqBr5PYpYH5ZFVtoXK9zTuCa/WntsfHasltZQkVmAXO2hNbQq7cpA96qXlwZZtNuJXb169/w410fgYP/LZk5A64bb3Vfda/ObW35Yp/soa1fj8CxdxarHgAHD7juOKnqUypHjxxLfO5v0YBXC1jAoVt6eoGAK1+9tt7xKh5Yl9jVzwLmcE1swYDLUwO+dgq9VY63reaC7W27lSV2JpW8EczhKju9o1eduow9gWvH21bT+dZ2s1tiOS4C5nDZnr9++oC32t72mi+6tt3sluCGWMBcyebzObVNF/CtLeAUeGqNBhy++gImGnCaPOCt+uXtAZ/f7KIBV34YHQFXLqF9toAD+9PGM6yaayVgHhzwMlDAF06hA6fGpfEMq+ZaRQNeBExbwDWfJBx4Aq+B8bae//hr47WKBnwLbCgQ8MsFvN8aA4598uL0Qx/hgLOAaQu44pNI4wa8RV5/HnDwz/0VMM8PuOIYetyAQ5uL0x8tGvDWHnASMO8b8NYccOyTp6enWALm0QFXHEMPewq9hvan++lL1tiBQYeAY7+BGAGPHHB0Agd3vPtpkc0nfuGAbwKmLeDbvAFvDw84C5ixAy4TBdy+uQj+9r/TY+h4wFnAtAWcZw14DwZczr79JmDmC/j0zc1RAz5f7N0DPvtP5giYNw44eArd4ekgR+s52QPEA04CpmvA2ywTeAv+EgTMSwa8TBrwGg54Pemx/cAgHnD8roSAj5bQPknAFz5lJmBeMODbnAFvHQLufksQMAKuW+trvI61/Zaw9A74JmAaA86hN1tGOYXuMd5Sa8CbgBHwpQncP+C1vTcB8/SA19cJ+KyO3Brw3v5LzAKmLeAk4PqAs4AR8KMCPqmjtH7FImCeHvDpOxkC/vRu1/5LTALmRQLe7xzw8YZ3FzACHnkC9wj4+I1gAfP4gE8/yTFvwCkQ8CZgBDxTwKk94E3ADBZwEXD9xWoPeBEwjQHnlw34+Cn3wtvAAkbAF7/0GAEfnosJGBP4SQHfBMxLBLy+S8ClPeAiYJ4ecHrZgG/9A04CRsBPCbhExvOjAr4JmL4BbwKu/lX8624nYJ4Q8DJIwLuABSzgeQN+8AROAuYVA95fKOBcHXB1Okd3OwEjYAEj4FBsAhYwAp4s4EufpDz+KJaAeX7A5VkB7wIWsIDnDdgEFrCABVz79UuPgIuAeXrA/2XvjnIkxbEAiiKxAG9ldsDWWRLS/FpiRmqp1dVVCc9gsIFzfyuLiIzghI0hyAngNfwKJ4DVN+AZYIAFcN+AR4AFcE3A+RGAt66lBFgtACcjMMB6DeDlg4AzwAL4SYATwAL4e4C3LoYGWAADLICfCDg3BLwArMcC3vlC8BdGYIAF8KMAT3UAZ4AF8JMATwALYIABFsAAC+BOAN+7Cn3w68AAq3fA6ydG4EqAV4DVGvAAcAHgBLAABhhgAQywAAYYYL0I8NwG8K2r0CPAAvi5I3A1wDPAArg14AFgAfwJwCPA6gzwBDDAAhhggPVZwBlggAE2Aoe2nwDWWwEvAMcBLwALYIABFsAAC2CAARbAfa9CAyyAXzMC55LXGGABDDDAAhhgAQwwwHoy4AQwwHoN4NwG8K2r0BPAAvi5IzDAAhjgX/8rwAIYYAEMMMACGGCABfCbV6EBFsBGYIAFMMACGGCABTDAAAtggAXwMwBbhQYYYCMwwAIYYIAFMMAAC2CABXAc8AowwDICW4UGWEZggAUwwAALYIABFsAAAyyAARbA3QC2Cg0wwEZggAUwwAALYIABFsA9A14AFsAAA6zBKjTAAvgLI3ACWG8FnAEGWEZggAGWERhgAQzwFuAVYAF8EnAGGGCAjcAAC2CAARbAAAMsgHsCPAIsgAEGWO8CnB8JeAZYAN8+Ao8A6zWAJ4ABFsAAAyyAGwCeARbAAAOszwLOAAMMsBH4XsADwOoM8AIwwAK4Z8DDYcAJYAEMMMACGGAB3Ang3BDwArAAfu4IDLAeDHgF+CjgDLAAbgB4AlgAAwywegM8AwywAO56Ffow4AlgAdzZCJwBFsAfBLwALIAbAE4A6yWAR4ABFsAAA6wOAA9tAOeGgAvuarfxYQewPgz43hF4BFgAAwywAAYYYB0GnAA+DHgAWAC3BzwDrJcAzo0A37sKffSeOiPAArj9CAywAP484AywAO4A8AKwngp4+iTgCWC9EvACcHiTAAvgNqvQVQAvAAvgJiPwwa8jAazeAK8AA6zXAJ4BDk9XZoAFcBPAI8AC+C2AV4D1UMBjCeD1OsAZYIABPg94aAT45hF4OAZ4DX8mACyAbwM8AyyAPwY4A6zmgNNHAU8A64WA8zcBB+2MAAvgP246Pw/wArCaA54+OgIngPVCwMu2gvmlgA9NVwAWwA8GPAOs5oDXjwI+dCkWwOoc8AxweLoyACyAG61CDwDrBYDHr47Ahy7FAlidA95RsHwb8ObCF8AC+D7AR67kAFidAU4Ax3+xzes4AFZ7wHnnB/J7ACeA9XzAUy+Ac1vAuRzwDLB6A7x8ZwQ+cFu7BLCeDXh9K+C19gYB1h2A966kPHj3t3cCngBW34Dn7wA+cCIYYHUGeCwFPH8Z8PZRM8BqDnj4EODyE8Hb/wFg3Q44lQJeAAZYAHcAuPgE2fZpYIB1P+Dd6zgABlhPBjysa/na9iMAF6+vF20PYN0AeN0fX68DPLYFXPyV/glgPR3w+lrA89lfCmDdDXj/NHDgUo/HAi5dhl4BVl+AU0DnBHBMG8BqDTiwzrVcBXi+HXDhMvQIsDoDPAF8FPAMsJoDXgNLzOnIMvQjABeeRyrbHMDqEvD6HsCFy9ATwOoL8Bg4ixRa6Dr4TB4MOAOs5oBTT4CX+wGXLUOvAOtGwMWXFv1gMzRMb/6fhwAuuq3eArAuBrwUAw7Ns8tXt7sFXHS/r92/MQOwqgLOZbvPjzvdWr6KtT4D8Aiw+gW8e7QaHFvX4oPg6JmngmP2OwDP545PAFZdwLnMWRTwUu15tAY8lPxiu78SwKoLeC388SX2Y4WXLPUMuOCYYwRYdwNeyg6B59hW19KnEQO8Nge8xje2AKzrAZeY+BlwKj0IXh8DuGAZetp9CQBWbcBLySHwGv25pezQ+mfAKf65cA3gglWsqXBjAOs84FxjvB7XsoPg9bGAl/BvBbDuALyJIursN8Br2QDcMeD4Db8C15YBrOqAw7vk1v6zFs2h1/iTGONbvQhweBVrfw0LYNUHvDGspeOAc9EAHAWcGwBO0Ver+KJxgFUDcI6PlHN8s0UD8IMAL8HpCsC6CfCPe0XBke1UMIdO6/EPkQaAx+BrEDnfBLAuABw+OZRLUJYMwD0Djt40N3LJFsC6AvBy+sB2jB9apzLAU3gZ+irAwVv2RX4KYF0BeA1KW0oA5/BPFgBeGgCOfXEqtNYFsC4BnGM/OhctTM1nn8AfYOT2gGPjNMC6EfD+l8/39rjo6nZaTwFeGwAO3TAottQFsK4BvIZ+snC7sU+FsqPr+X7AofuNpAPHDwCrGuB8/Kj255H1xMP/9DyWBoAjN/aLrRYArIsA/7ZrFJwv/nFoXcKPnqNH17kB4MBtSYI31gVYVwH+174xhVelfgb/2/6W1tOA1waAA9+KPvStLYBVEfAvu2VwRry74TnmdwvwFJ0GXAZ4/0tZwVuHAawLAf9j70hrJcD/FLzhtwBwbgB42huCj12cCrCqAv4bR+m52i2eeXOOHdh2ik7krwO8d03pFD3YAFhXAv5rz0zBZa7AKtbfO2pa16OAwzewvA7wuP1apPBcBWBdC3iruWBHK63GXQWuAzwUHhpkgNUf4Ou2vD09jz6RCwFv3QYhFcxVAFYzwKV/xKHaxqP34bsQ8MZXmIvmKgCrGeC9fWe8CnB0inoh4LHSXAVgNQM8F+1plwKud8vHIOCh0i8DsJoBvvLwuuBrgtEvStQFPNWZqwCsVoBzIYaKWw8yuRJwqjNXAVitAO/vOuNVgINfgbwS8FjndwFYrQDPhbtaRcCpPeCS120BWPcAzlPFQ+BTB8EFN3xuAzhV+agDWFUBp4oz6FNz6HxkaL8T8Fjlow5gVQU81JxBn5lD5yND+52AhyofdQCrLuBUcQZdOIeeT3/T6VbAqcZHHcCqC3isMkIeOFD81+ifj8zNbwU81j+aB1hnAUcHzeXAzrY3UBV8QHQAuMorBbAqAx4rzqBL5tDLUAJ46gBwqvBKAazKgGPm8nDEw85+XvAAYweAhwrHGgCrNuDx7MLMoTn0XAZ46AHwdP6VAli1AYf2y2Ob3xmnSnbMqQPA4/ljDYBVHfBYbQlrKDukLhmBxw4ARz6dFoB1M+DAfjnHt19wqrRox5w6AJxOT1UAVn3AY60lrOgy1jKUA04dAB5OT1UAVn3Au0PwXPIA8YXash2zB8Dp7FoBwLoA8FhrCSs2IR8OAU4dAB7OrhUArAsA74wsZTvNGD6gLnyMHgCnk590AOsKwEO9AXh3CJ6Hg4BTB4CHqjctAViVAKdqA/DeELwMRwEPPQAez33SAaxLAG8Mm7n4IaKfBqU7ZuoAcPTPswKsWwEPdZag9+aZy3AC8G94WgAeKt6zZAZYtQCP1QbgjXnmMpwCPPQAeDyzVGAE1kWAg3e9OLWONQ8nAY8Vntvpar5QUi3Af1Y3D/UEbw0twZFl7MFMzRdKqgX4Tzvm4RlbZC5+5IHGHga9iV91CPj3HfPEEVdghnnskaYOZq0Tv+oQ8L93zKXaA+0aX458NrR7FZPjX3UI+Ncd8+ywsredE58V439aj3lWhtUh4H/8e77TwBMR/HU4/l+7lHoC/P8dc7ppt3R+U6oPuMUsFGAJYAlggCWAAZY+A3j2zkgASwADLAEMsASwJIAlgAGWAAZYAlgCGGAJYIAlgCU9A/AIsASwBHBrwN4YCWAJYIAlgAGWAJYEsAQwwBLAAEsASwADLAF8EnD2xkjPApwAlgCWAAZYAhhgCWBJAEsAAywBvA148cZIAEsAN3gmAEsASwADLAEMsASwpO4Bz94YCWAJ4Jvyp5EkgCWAAZYABlj6ImDvi/QswO4qKwEsAQywBDDA0hcBu6OO9DDAboklASwBDLAE8GHAi/dFehZg3+eXAJYABlgCuChfRpIAlgAGWAK4pBFg6SWAvS3SswAngCWAJYAbA3YptPQwwBPAEsASwA1aAZYeC/iXs0iLt0UCWAL4npILsSSAJYBbPw2ApWcBXl2IJT0W8AiwBLAEcIOS6zik5wKeAJaeS2d1HYcEsATw/f26hjV7V6QnAU4AS88FPDmLJD0X8Aqw9FjAvx4CO4skPQpwsggtPRfwCrD0v3bu5jh2EIjC6EIBEBKpT0jKAK+tP2+A4crnhGDVV93Nm3qxAf/eoD1CQ1TARcCQG3D1CA2xAR82aI/QkBRwETDkBlw9QkNswIcN2hsWJAV82KC9YUFSwE3AEBvwcQB7w4KggA9PWG33SSAm4OMTljcsCAq4OoEhNuDTAHYCQ07ApwHsBIaYgE8D2AkMOQGf+nUCQ0zApTmBITXg8wLtBIaYgM/9OoEhJeDanMCQGnC56NcJDBkBX/XrBIaMgLerfp3AEBHw5fx1AkNEwPW6Xxs0BAR8068NGtYPeGt3fA1YPeB6268NGlYPuN2zQcPaAZeHfm3QsHTA21O+NmhYOuD2zAYN6wa8/dGv30FDcMA2aAgO2KeAlW9gAxheG/DHp4DYgD1hQXDABjCsHXA1gOGdARvAkBuwAQyrB1wMYHhjwAYwBAdsAENuwAYwrB/w5lfQ8L6Adx8Buiy23wjYAg2dRvA3Av74BNCnqy/8lzoWaOi1RM8P2AIN3Zbo+QFboKFbWdMDtkBDvzN4bMBVvzAyrckBO4Ch53Y7N2D9QtclemrA+oVeyoSmip9Aw8jxODFg8xd6n8HzAt79waF3XtMC/vh7Q/clemzAm/MXRi7RcwI2fmFIYDMC9neGQUv04Kdh9cJI/m0HAAAAAAAAAAAAAAAAAAAAAAAAAAAAAAAAAAAAAAAAAAAAAAAA/qcftVlBWrSR8JkAAAAASUVORK5CYII=;" vertex="1" parent="brUmei9bkIKx1N2It68e-23">
          <mxGeometry x="131.76470588235293" width="83.65176470588234" height="47.05882352941176" as="geometry" />
        </mxCell>
        <mxCell id="brUmei9bkIKx1N2It68e-25" value="" style="shape=image;verticalLabelPosition=bottom;labelBackgroundColor=default;verticalAlign=top;aspect=fixed;imageAspect=0;image=data:image/png,iVBORw0KGgoAAAANSUhEUgAAAWkAAACLCAMAAACUXphBAAABtlBMVEX///8Ax9QArUbkOSEBfO5RUE8R4e4E1ln/dVcMtv9OTUxKSUhCQUBGRURLSkn4+Pirq6re3t6IiIeSkpFhYF9ra2p0c3LX19e/v7+zs7MAcu0Au//z8/MAee4Aytg+PTwAde3q6urNzc19fXwAs/8AqTniJACfn55ZWFe9vb0ApzL/cVGhoaBwb24E2k4Dx1LjMRTsLgD0/P8GlPQBukzqbF741NBk1+DnU0B12+Pukoi87fHxqKDtTzX/8O374t9sra4JpvoInfetz/htqvMEtWbm8v1syIpGvW7H3/oUsVDo9+7a8uObxPfoWUnoYlPreGzvmI/0trCf5evyrab2xsHshHj52dX4pJbvSSn/oI3vVDnK8fT/k37/g2mdcYx6h6+IgKOxYnI7pOHQRjyxlYqia4F6qai9V1zIi3rWQC9Iw/8+usFjksJrzf/XhG8EifF8x/u4koaUUlWNQDajPjONo583cY5kTEgTcNRMQjQGmaMvhowGjchNNzRMQEgBi9gDwIMWmUUDuZECqawDzGsP2tkBmcQBn7t6sPQP3N4LzLB25ZlgxYKK6Kqm7b6+8tCM06QfDijPAAAS+UlEQVR4nO2djX/bRhnHlRelqaST/P4WO4rtJnGapPMS6LrStLRbuy7t1m605WUw9gZjA0bGO4zBSsdgg0H7H3P33OnlTif7JDu2W/X34UMjS5bkrx797rnnTpqmPdWkdPfcuVdfvXXrm7dv37t3/rULd16/e/fspUsXncmexd5z35nsAaeg2xv9sDao+v2Dc7duv3bn7tmLkziJvdW5ub1JHGiautTvL8jlcV+4de/C3UvHGeQE9JNPegDqADmJ8lfv3TmmAAfQGSCtXVwYhtrn3T93/u74aQPoLJBWRe3hPjh/dqxWQkHPjXOXM6sEqAH3Rv/23bHBZqCzQVq7eJAINcC+992xHPq5uUyR1pxzCVET2OdeH/3APujV0ff1eCgF6oWFjYULI5qIDzo7pNOhXtjo3xnloAHoDJHWtFtpUC9sHJxNfcQQ6EyRTol6YeNeSgsJg84W6bSo+wep0hAO9Nxz4/4xs61vbqRCvbCRIgvhQWeNtHY7LeoLSY/0/Fy2SadHfT7ZcUTQc88fz++ZYaVG/VqSo0RAZ5C0di8t6u+pHyMKeu7JH3OJ6nxa1D9QPYIEdCZJp0b9fUXUMtBz3zre3zSjSot6Wwn1d2SgM0paey0d6jdUUMtBz/3w+H/VTOpCOtTL2z8atucY0JklnRL19lDUcaAzMYwoVyrUB8tDUMeCzjBp7U4a1MuDUceDjh/c2ioUttKcf8fQ82m+NwW9ngL1NkH9ZlwVdQDo2KJp0zJNt5ni9OvIqqX42lSUAjUhHYv6W/Gg4wtMdaTrqJ7i7OsIPTaktbuJUb+xHI96EOh40mVD141SipN/rEgnR01JS1EPBB1bYMq7drFoW2HHdfLVdrDU5Ja0djXPrIaSjls7c0qK+mDZQy1OKhsMOrbsUTStatUyN+lS3bLbRWRZVo+Fa76CFyybrdZyOlksd2BbTLpu4EXd855OCS+hyoy2k2eTofZIL28v86iHgI7tjNtGT9NKhk7vkR1k6AiTNg0X8HVcG9k6slEFVnctA69EhpvTwOB7bNsd+mXXtnS8vds5HlSjKhlqn7SA+odDQMd1EWsIYWo5ZFE6OVO3e7V8tYh0hF3B0Q1zy3HaFRvSjJxl9Grtdg7pbhVIe9u6JIyrrlGqOk7NNMwZdZDvJhnGDUhzqIeCjuu4VGxCtG3ZXVjEpA3AVDSJobQtF1ykSdfbBgJTriOzAKTptjumWcT/7Np0Lb54O8fFakRdSoA6RBrrEtvDcNAxHZc2ssEXcNACpZxp7rAVRhn/47CG1yRLecsu0MWeAaTZtk1Ecpcm8tfaaVKZiWj4XHZfbyxLUCuAjum45FimRk2EkLaqdE3P0OFfp1MvdksGId1Bft5NLkCQ5enE66uWXcxXsfJlw5zwUzzqUkctkN4mqBVAx6XTHk/NILCANMscKK5mgSQirqUT0vhyhLvtYdI6uQ666YJsI1WfczK6tNBf6D/77HDeAmmCWgV0TJJXtXS9BNJ1COYwadvR2oaJeoVcLW8okLb0XompfKywRtPFhf6P33r7nf4w2NvLIurq6nDOcUlewdZtE4T/IC4bdo8esW+T+gWi7mHm6Mp23omQxkn5rDaEvNrvrmCdfOvDZ5ORXt7+hQppaZKHm7Jegaln2E1oEWknJY+MCmnkaEpStaBFdNmi47qVCOkmbUPJbtsza9NYeysnQSsn3x4Y1hHQy9ubKkEtPaifPWgkVSPWgLM8BPbRtXET6XjwyuAeOM5pxBchrRNI46/Q2l7HdbvHB2pU7a2cOsm08u578X2ZAwnpnyiQlqceZcPyixZtCFuST5ubtXrZJDatdU2z28nXSia0iNqWq9ubnVoXwfdE0nnXMHP56ibuQs5u5SkEmuidWAcRG0TVmJbWl/KuWQmWdk3c08vhxNlCCNkm6QVq7R4ySaGjpJuQIm/izjlCpolIj7JuefVpwzTIPzXLJH1100pTg52MBNAnV34ch1pG+tsKpKWpR75crgZLnXI5D7lHrWwgvUBTEGezZ5qlHa1Ypvbd6ep4uQh3QpV8AVQoF+kOCz1/7UxKBI1Rvx2DOtogLr85nLP6wDjN8pxwi+YIzZu4nGTtlBUFjVG/JUedtkFUHa4N8uknUDLQcVEtaRCXVUJaee70E0365zLQGPVPJaijNr39vkpIK89+3LHc6vCtHk/FgMaofxbNq6OgP1DqISrPX6p2C7NbshhNsaCxPhRRfz9dc5iZB5kHaRDolXdF/4iYx/YvlEI6c4+4RDUItCQBEXM8RdDZnKTOaTBojPodzj9E81DqsxBleEoe1TDQWIPMQxl0tp6ulUgB9Movn401D1XreGoeHw0HzfsH123ZflMZ9LTMow2jilWaNZK/ptRR90CvwABArN7tS0N6+1dzyqCnknl0Cj0yAknmPxHUu65lubvTOBEK+tTlK/v7R1j7+1cux3QVg155GLRKTdrTGB4l2oHRQfVZ1tWSZRs6FQweWPDXNIL6o5MnL+8vtlqtxdYiVgv+XDy6cvmkGN8r7/XF9nB7WbUtJFJqD5ubRaKcfG3bNYgs1V9Xcz3MHmlE/kJTIP3RKYJ5URTBfXRFqFV7jaJvHtsfqDvHnGJ7uItg3NbdlK5tQ0gqk8q7ekjuNEl/tB+lHMK9uH85jJrWPw5SBfScWnuYtxgWWwojIekSjWgEeHUY1pkS6Y8l4SzQDsOmnXIW0tu/ThTQig/mF03vVpeOACYj3YGtDX0rNPYyHdIfN4ZwZrCvnFoJBTVLOdRzuwQh7eierxoV2Xrq07arRqpgw93BjXFNhfQrSqDBRo4us6Du99+AHPr91aSglVy65pkHdlXpIODOLpFi7tEjlw3xjes0SCuDZoGNk5GV3/z2d8Sgf5/QOOZUO+JdGoXk/0afh9SkVPkrNgXSLyQBDaz3T/3BQuiPb24m56w4BEBt2MwRHHQi5Chips5TnTzplxOCJqz/9Gecf1mfpOCs+J6anEkdGtzaGvXRCchjxIfBJk5672hY1iERkEZ/SUFasYgHxoqzjk1C3JtunlqzQfrFteQh3fiU9Cr++nmKkL6hdFJVi2XSNKtGIw4kzgTp5N6BOV89c4j+9rdPlpYSB7XiOC1kZfCkShmyhhHneklJm3GknXynXq9vdcY87ympd7Qan90/c+LEifm/z3+1RJQItmJZugkUYJpHHUkgEbV3y+VyNwj2PFmmNlPNFSp4YTdPJo2BaG5e5mRISTfrFZPMAiTP2uldvtNUJV8T6zBOQfJhs+ufjKdXEnpH4+gB4Xzimfn59ftLSwlZq9b/Q3ibYB9udG5NEZECU/ATC2SZzCitlSxkk24N6modWodinSCDk7SPmTNRqBJl+0+bhg4hTD4pWrIPI1vuJeO8tvb5GQB9Yh5r/aulpUSwlQdawpYRGInwY0xIAwMMZDu0pXX9op3dZb3wAeJJt0tIWG9Y3WALCABTqHhBdiR+SHtK4dYlUUhjg/4H5UxCOhTUwHoo7FVl0LTwxk60I8uFY0nXCgGrxKTzphf85NkP9rdZ9jdpS+yeNtlCyk/bBa6KkCigWw8Y5xMnvjEPqL9YWlKFvbqkPnQIEG1vEn9PnlJLSRtlM7AJ7B55FyyXFasQpwjpNoOLrN1ibqdYskyG2t8CKoJ8V3OHbsRPHYTg55rxJCHd+PQZHzSYByZ9dUlUDO3VpQSgNfjBPlv4LXakzCQlTW9l1CtXiPCvz2/VsKAfpPdqnGyRdJnuwayzz9pFVi/0rQtOhU+EWDmWrxhUIldEPfFoNT4POFPzwDr9RQQ10OZwr66SDxOArkF7qHuLbYg+S8y55KTxF9FmJD1TyvLqNIcvhb7doQHrN22Q5tvhJ2a8Kjq382YkX1LPpdcW74dAs5DGOpSRlinJu2IrNt/G7EoKcbGkDV2SBiv1XKjv9LhOEqtr++O69J4J3Qc5v4oesg8IFS7KX1QN6cZnJ8Kgn/FJrz8YP+hIDNekZaYY0rasv6FCeoseVkjXNk0OIxw03GaAeYiRAKcSRq+c4jX+GebstYeyRnEMoDVavwtND3CkDOSkI6EPUiENd05k1IH2ofz4hBgPpZxtaifkZUahZ3jBuo3QXl5QbA8bn/CgA/PAijaKI4JmuWi4xF+UlZnkpOWv8VAgzUrYkZG0Ik1pwl8KmhBIMowS8A5uwqpwOZTNg2sLefMgQf3vMYOmxSXuzQW02REgyrM8+UwZBdL0sFbkQnVgM3/UuMsbA+li4YAnHhKkJDuixeylBB02DxX/SPjidCAmBHApEuYxpO1oX5JIgfRWzJgDazU8trSx845KgzkPbIO4L4nNplrm0fiXCJozj+H5R0LQTZkpU+vm32YgJS3ptRMpkPaGHkQ5Bnc+Te5MqHmw/Xv5M1wbLhX8UsWm1z6NgH5GIM11ykcFzYpLQmw1+cACjZn0pinyYaLNhu8FXKeELEA6CvbB7jm4O7gb8EgBdOtI5CyaB+m/DLDqxFMdy9LkuSuk2NrYSUtbXSLqXH5LSTvadBESEwh3cp28GwLONdxBvKZiHo37kZAWzWOgVScGzcZYxKSY9iDs8EeTJe2HKM3r6HbEtOntR9MNaE4dPlnR1HK8tahJR8xjEOrkk3eLMTcx9Eq4MtOxkJZ8XWyNaV8Fvkailx2R9F5opENQcDelQo7XWox6R9Q8QF9JScfxjBdN+ksVUT1dvAJTcg+WwxHLcPy/6Nfp6dFuZLhJUagurUUSvFjShzLUqngDsZlLRkTwMecqkyLdE0hToyBNBq0ShD6FnZHtuRb9mkI2vfYPSUxLQWNFDUSZb6BKaGhJovBNOaHcw4n4lu4lRwU7dEBiH2QrGMXg2m6FbLr1mSSkZTYtR62MN1B7yBBJGNaYSdclKTtRNL+HA5O5gii8AuyjwFJ/rjugMAggaw8HkBb65ep8A7EaZNQ8PP8I/YQxk6a9biMyiFaNJEO0yavDv0EJhNaeWJaqh/eg0CBKScttGnT6/oigqScavd1yVLtAOkRyzKTp7RR9vwXtO4Z912FFP8486CxkqwO3AG/3Cg2i1D3iQeOonvfDOtVTcKzKI5+FlxPGSMZMml5lcYybpR48Ouia2M2ewZ1rEcDDrYHCv0CpvNR4oNJv4Vgf/pskIV88kv7gYaLluJiZpW06YO4ntuMmTZ9BEN9+SrtM/GMJkHPYtJzqcFsapS5cr3BFUKWH2Dq69p9h5aUo6/XDq4frp1+S4xoo2viY0lq+xvKSoM0aN2k69cHk8zynZ0Ttm56nWHKkfcPocIJCD7G1eE3TRNTxDaIAPAXqunxo1hMLL2/1uEnT4Uuh5FIxo5+x4ZmI0XlDxsLg+fDUA0BHUKuSnl//OgZYvErS8aVA/GyhsZNmw9xWIQhzNntE9LO6N3sHhT/1Z/HwsTI09WCgNe2/Z1KRTo46P6g9JNrk0oCxk9ZyFJWJ27V2s5mvda1IaknVZg838g2lw/gLxxn09CGAbl3zNv2vfFh87Khpk2TEb8BfivGT1ryZZiayEP4fcwM3+tRSj10CftSR2YfwWM6wiA5A86gTkJ5fvx5PLSra7Y2mWSGBP3o95mMgrRWsSDXAkID2pogJI5s1eqH4ebF7g1MP3zqoQqiTkE6GuhPTdQhpi87wpXCANBqVtPCE/paBONaGVZKdUBXsQ6yS0JxEcPXBSV5r7Rq/j/+dSUU6Eeq8S95JP/jdxQbZhqW8ddg+cPUcLMvfyNuE990LhboyeeuEOAXeyfXY7GvDMJFbjnnDb5ccLBIVm3AK/D0wuL7Uelncs486GelEqNvkzSaDN3GC16CQ/+ZTlfuvPpHluDuiKdm3E/MmlXyuUC71eqXd4lb88xf50IkEagunpA1Jp6OgA9QJSc+vX53l17dOQIPS6TUJ6AB1QtK4f672tNaTqi/jkzw5aE17eCYVaYw601Ed33GJA+2hTkw641Ed23FpxIJmqAfUp2OVZdRx1elBoCnqpE0iVXZRJ7YOqoep7CPLqGPmqDdeGPbFm+nsA+vmJH7X7Ek+BWE4aECdjvR6NlFfk6XTKqAJ6pRBnU3Uss64GmiCOh3pbKJ+ORrTqqAx6pRBnUnUUdKNV9S/feMwJerTD4/vJ82oIgWmJKAx6pSk59czh1oknQw0ier1p1GtJKGUlxS0pjnXn6JWEk86OWisr08/Ra0grmiaCrSm/e9pVCsoTLrxZcqd3LieLqwzhTpUnk4NGuvhfKq4Pp1ufuRjqYD0KKCxHqVinSHUPukRQWMLScU6O6ivMNKNF8ews4fXTyeGnRnUbHBrbRygsW4+OlxPCDsrqCnpcYEmwrCTRXaqueyPn4D0OEET3Xz49fpp9dhOM5f98RMhPW7QoJsPX8JGooY7E1F91Doe0KAbGPf1QxLeQ4BnIaqPWmtXjvkQmPcjAE6IxzDPAOr9xv6kDnXjJkb+6KWvr189PJzHyBl5qsNJncXUtDdkXsdxHfbGDQweoyd6hJXB4a6nOhb9Hw/uzcM58AFIAAAAAElFTkSuQmCC;" vertex="1" parent="brUmei9bkIKx1N2It68e-23">
          <mxGeometry y="10" width="73.32705882352941" height="28.235294117647058" as="geometry" />
        </mxCell>
        <mxCell id="brUmei9bkIKx1N2It68e-31" style="edgeStyle=orthogonalEdgeStyle;rounded=0;orthogonalLoop=1;jettySize=auto;html=1;exitX=1;exitY=0.75;exitDx=0;exitDy=0;entryX=0;entryY=0.5;entryDx=0;entryDy=0;entryPerimeter=0;" edge="1" parent="1" source="brUmei9bkIKx1N2It68e-5" target="brUmei9bkIKx1N2It68e-13">
          <mxGeometry relative="1" as="geometry" />
        </mxCell>
        <mxCell id="brUmei9bkIKx1N2It68e-32" style="edgeStyle=orthogonalEdgeStyle;rounded=0;orthogonalLoop=1;jettySize=auto;html=1;exitX=0;exitY=0.25;exitDx=0;exitDy=0;entryX=1.007;entryY=0.339;entryDx=0;entryDy=0;entryPerimeter=0;" edge="1" parent="1" source="brUmei9bkIKx1N2It68e-9" target="brUmei9bkIKx1N2It68e-5">
          <mxGeometry relative="1" as="geometry" />
        </mxCell>
        <mxCell id="brUmei9bkIKx1N2It68e-33" style="edgeStyle=orthogonalEdgeStyle;rounded=0;orthogonalLoop=1;jettySize=auto;html=1;exitX=0;exitY=0.5;exitDx=0;exitDy=0;entryX=1;entryY=0.5;entryDx=0;entryDy=0;entryPerimeter=0;" edge="1" parent="1" source="brUmei9bkIKx1N2It68e-36" target="brUmei9bkIKx1N2It68e-19">
          <mxGeometry relative="1" as="geometry">
            <Array as="points">
              <mxPoint x="720" y="205" />
              <mxPoint x="720" y="338" />
            </Array>
            <mxPoint x="785.3" y="215.75" as="sourcePoint" />
          </mxGeometry>
        </mxCell>
        <mxCell id="brUmei9bkIKx1N2It68e-34" style="edgeStyle=orthogonalEdgeStyle;rounded=0;orthogonalLoop=1;jettySize=auto;html=1;exitX=0.75;exitY=1;exitDx=0;exitDy=0;entryX=0.5;entryY=1;entryDx=0;entryDy=0;entryPerimeter=0;" edge="1" parent="1" source="brUmei9bkIKx1N2It68e-30" target="brUmei9bkIKx1N2It68e-16">
          <mxGeometry relative="1" as="geometry">
            <Array as="points">
              <mxPoint x="838" y="460" />
              <mxPoint x="499" y="460" />
            </Array>
          </mxGeometry>
        </mxCell>
        <mxCell id="brUmei9bkIKx1N2It68e-35" style="edgeStyle=orthogonalEdgeStyle;rounded=0;orthogonalLoop=1;jettySize=auto;html=1;exitX=0.25;exitY=1;exitDx=0;exitDy=0;entryX=0.5;entryY=1;entryDx=0;entryDy=0;entryPerimeter=0;" edge="1" parent="1" source="brUmei9bkIKx1N2It68e-30" target="brUmei9bkIKx1N2It68e-19">
          <mxGeometry relative="1" as="geometry">
            <Array as="points">
              <mxPoint x="802" y="440" />
              <mxPoint x="593" y="440" />
            </Array>
          </mxGeometry>
        </mxCell>
        <mxCell id="brUmei9bkIKx1N2It68e-36" value="" style="shape=image;verticalLabelPosition=bottom;labelBackgroundColor=default;verticalAlign=top;aspect=fixed;imageAspect=0;image=data:image/png,iVBORw0KGgoAAAANSUhEUgAAAYAAAACDCAMAAACz+jyXAAAAzFBMVEX///9Dhvp2dnc8eOFubm9xcXJtbW67u7vn5+f09PR3d3j7+/szf/qoqKhtbW/39/d+fn+KiouDg4Q7gvrY2NjC1v3S0tLIyMibm5xNjPqurq7u7u45gfqWlpbX19fg4OBAgfA0dOCJsPuPj5AtfPrAwMFnm/vk7f7R4P6rq6sscODx9v+evvyioqKRtfxQjvp/qvu3zv3Z5v6nxPzr8v5clftHf+Nun/tjY2TK2/13pfuxyv1ViOSFp+uiwPytw/FhkOWQr+x4nulikOZHtu9gAAAXzUlEQVR4nO1d6WLaSBLGWC2QxCEBASwZWAcTGxzi2LGdYzKZnez7v9OqT/UpuiXhY3brjw90UZ/qrq5utWwouv704aQ2PX6+u7G63f9Jone3vfG4PgAn4/Pxx5f+Lm+RPl02wX1MvQ//FwJX+njZGPtzGp+99Pd5a/S91yT/T07O3zf/jFHUzbpBFDV/5VdAt83pH0yX940+36ozT+LQ930Qx4t0GjR68VdAfzQsADk9NvZw0XTv+QC0KQEw8JPZsLHrV6VsgqmBJ7lpnP25IX5X/7kQzeJBwXxGXtjPGrpBVep88yB969a/1KfzIyBwUv+5WpD9vsp9IgidRu5QmTr4vfDrA3DfvALK6byBaCBbm9iPpGC0qn+L6tQcAB+atsAEgau6DzZta5QPT4NN7S9fnRoD4HujIUBB4891v6Hw+gOAVK4nYOKndb99jcdrCIDo7Dj8z+3wda0H23L8z5m/3m4my+VkliaeV3zQhAmsSE0B8OUoFhjRbZ3n2nJs9pIN5/oHm4R+BiY1v30NagiAh6OxPxeBu+rPNSvef2+0lD+djBAE3gvyvykAPh/HAmM6q5yUWxX8B1pL28kR8P8BXtD9kSwwpvNPFR8rihn7Y0PAtQpf9P1vCoAjuaCUxhVd0T71dUBiTL51X5b/zQBwd5QYjAPga6XH6lIFBEavN/nZBAA3R3NBKV1+r/JccyYAL53wKaEmADhOEoincRVXtDug/s+0xpc7NjUAwMORFRCk3hf359oTAQD76t/t+NQAAEd1QRk9uD5WwDzQV6yAmgDg+hkEoIorOiVxLuhX/mqt1jAIgsOlkvygw9U1w0FGACKbi0K6fQ7+53bY1RWlJrjyu5XN5jHw/QEI5xuzEE3SJBz4vh8n6dLoa2WbeZwf44eLKTwmwISQ1QIQTfujNjx+vT0YJf5xdAtM6IM96xBRBTRyPI/QcgFYyhR4XqI15NEsLvKqwAu32ne2O2fZ1/yYTqs1ApA8JJoaAIadkB0PvHhW+pzRM7HfuTqZkSAAVEo1B3NfLCIAP1HfxWnstcWjNHeL9uKl/HWQcLpRBWAZilf1kzIZPr4LSsnRFZ0QADwlBWdBS00NByhVg76m0ObFEre6sXwpEMdlAGwHbfkE3ywEV8/iAWFyq052qBBX8IFm+hKmt+APitae/igB8S5QoaR81QIw113VNxauvz4jACdjF1eUAhCqTswwHGkp3uLPp6YSsjfnrrLmOSv8ziHQDfkPJK2mA2DvcYcXJ5hkoOlWuAMAuFQn0xIAFCEn3zhBHxc5bOD5YZK7I4wPg0IL9RmngN8O1yFXYBswoRvGnB0fLdZt3hzoAChkzwPrfbpmJt7XC/LRk0Ai9Rwa5Rbk0RP1o6GxSQL5kewvbz1DX3u1Z6+iRy0xkxLQTlfItZyNKK5gLT8EvBRykFac3tIAwIJHEM/QswT0PSquydOXZxWAE6dGuX2JBJQCkLJCZSH23YTygTi1rNLgLYpXs8NeV3ImdQTaXlENmhZuqwoAfWhvz556ScMZjTNxjFa4cnKoTpbZgDIAAsqgUBD6tciHDUFJ9IyYWMT474Tynw8iMiY7CgABkSHB1pCIHmhE+f2zuaAFOQPQVmOjUgA6NIMhuZNEBogqoDxciAdRBHzE8ZXwF6OlkCPhASC/A57/qy2VCiUOOU4rXDnZu6I0FaQ+d2v4DUjEATAip8klZMpNDwoG1S2hjO6cZ+Few0/+/woARMxAcdVpUoTjSk7rsTIba/iuPduUEK0GaHo/o34q0YgB0KUWQDmL8BapE1Lr9JRrZxR2+AexE0oyKjMAQE5m0XSW8i2twJcu865KIf6818tD2sez8bjXqwTD+IclABEFQOs+6Jmbq9mZxISCln7BNqLcgareFgU/CZaaB8AHKQAQuSIe53LOxw1+nEqOaOScBR33xh8+fb+/uYlaNzc313efbnsVjIh1oxy1gP7hpC7xaaBGJ+/2QC3VE0ThQUNyaY1dJNYZyslsYBLBjh4AAn4Ib7ZJuJABeMlUybR+dGTe+PLrO7m/5+rXmbMYWaeEWC7icDaOVO/hkQQAXQKD6KmYOTK6SgOREwQA5qevYolfdQUA4vPHrW4f8A19oK/Jxjkmgcbj93rl/f2DqyqyrU4ybR4frKhQJkwZlzW+ExWpPBLIBkZoOT1OsVS519UDQE4IF1zrMPBH+mU8TnXIce+zOY1zfeaqiCwb5Wjw5B0UAcJ1f1gKAFHv5QAEBIBtmTCVA8AllgCYG9qWnFrhzs/K9bbj4lbb6iTLq2jeQYGoxwpVOmWCBgBVBWkAIIbUmxWsVVm4KgeAvfxhx5jKdXFBez8OtUVduzmmtq4ofZvbcfkDEHcRMo05mJpKIE5sQqeGGGGdgzXljHDxq0TYUisAdHgAAFiXdNO4rIfsybFTdH8lc/Dh0UmjWVYnCxGQQyGBWAc7fOupG6q6LvS1h00uFFpVO/c5r5JcSjXVe70XNC0sr9dOy8TWpRXu8g/+zOuPX89OLi97J48/vggofHUxBJeW1ckRS0aWdEbMaGYAKRRqumPlOMIpQU6ULD1N0oEWi7fQ7wINQw4ZDgDWSukdWj/rUIfkfZaHjyfM8x+Pz3uPd5xqcOnvHd/a9Xquipy9sTt3w8QEq30avsryH4XcYTQVoRT8SSYJixxxm5SsRocXDT4VQdGTTwikh7+yV0DcsIHo01jCbdy7LbKbNy7L7G1d0bRAINa6ExGrq/jkW9MEvGw3yP9J+o06WJKmoqlU3PJOU6ZSZ1hGH0kBYCsk/ApajER99MOaVZy21nqb48sfzKd0iywsq5OLwq75e9WlmI1Y8p9GtaybYi0gQBUVkQyaohQFJaKeL1ZgFA6xOTugpQQVAHZvsZky9YCAtEMdssfY+8Uwx2Z8wlzUvxwsu/UYD64nAXh9wbfJNnxXCfM7KW9BwulhqqhoQYaVrnxOXWSU/4Mp5Rw5q128wUWXRElBxucRQGVijxMC+yRQjxng92ZXv2g9//e/7BGwHeOR8V0hYDDaz1ZBlgWrabrmw31QQBOx/4UbAsFkwQSFsoF5WN6C/CvY0ORZoUKKFTrEqQlS7p4qACx6ByOC4XBGvkCxpN9+PWShgN6Xvdw9isDVzgEB20a5QOzLAZ6PyBNaFIRlYkVThAcWnU5nP2J5sUGhCVhTBPBH2/yoRYFnkSRlNUmYT5t35gl/V11RnrkEbT+ei1eldc4be1XNauiHwgbqkP59YY+AfXVywb3pWgJADLs6A+4jrlwjlgpDYDqKq97yq8RBhbYUzoSRnhkHF5Sl7g95TWNaa3/YndojcGu9drIjrouXyUtk65zq+1Y8wTvJlJY3cpRgl1PzmAp9Y5bhdfFpJOPggjLlftDF7/0iR/6+sEfAoVGuO/KNEKgdhy15vAHlwVY8KNC1xgF50fdGvVRY2po4196b6T6XeImccmeRayNe5fXu1B6BnkOj3DLRQ5B7Rtp812okswGEamomVfoO/YWSxZMvBcKsvDl3plx1UAx0eecQg9GkpZTnObuFJB1LvcrTU3sErKuTGAKu3ZxxP94a042bmC9JDdqprrDWnXuCk5VoO4H5SwEvh2jEA6AObAr2bb4igDraKTkkgWjtUMKMdJnLFyIK/c8LBwQcx3gEs32Yuz8ebM3PfSEvSUuXCEfTOfARc3yw3phyM1kn8dBRvt/um66XX6o98NFBc/gu8wB0l4imwg2C2ZpcddDe8+s+XOqQZ+Q8qX9XDwBt/n+3c5EB94lyeQAwTdPOdDrNbNJJ2RTSgXLCcAUPmhzows6W+UErfFOsgtRUHk9RF11VlDunkRzEUb+RlJYeAKpOrqAEWCPQEzKtb4ZIXq8cAC251CHHxARcSybYoIKIxb45PXVBYPwWZusqxoPEuwPnxWtOrXDnJGEpB84GAOgavJ8XLgg0MVHuuDScxUqPF8mSyo1Wh8mpE4UmGN4TqRlDMgNAjcCfF04ycPZ6h0BAytLQUxZXEA2k67Y9QE69iNRF+Yr/vH2EZAbgnGQWGAB2CLisGHh2CtZkVqmoa1JTX+NBcuG/BAD5q+cAgBUCvUpTPJ6L2KoCPtdE86iavsZDVAcAzCgnAGwQOP+le9DXQsW8nA1VlQGrEVSYYNE0AONLSGMjABYINDba+DjEGi68OM0Dhe50Wyx2qrB602lFmGiEdQCMPz9cXV09/OAPgOk4FwRqzrQ8OiVFDiKPvf0iwzCoMjHZqR1RdEO1ALznriq7obYIvPJAwJSzruACtRwXpYqB2EEASCAWPZ2eOiBQe6zu0SnTzk0umWFXSk5+KElFRD0bAKRUhC0Cl85ThJ6dgkTN7/vziuGL26owoh2Qjte5oTwAYjLOFoHK8yyflTqSEHihexKIkosVoDESSkcTBusA+Mqj9aciAWUIVJ/o+qwUdELSBACA58ebGlunOFTkmRHAigvzSgMAGnnJXmUN/80IvKFk6GrTXydJsujPao4o/uWSDiLnoNV858hcqgDcY0iJLr9XNVAJAs1tMPN2KDpz6EqhQRKqI/cgAgoAuM+atXr+1kqAAYHLVx4DHIccisJs3i2eawkRkAG4Rvwv2lIM/NciUHGc7psnh7YIlqrEo43PH6/HIgC/zpELekadSZ0JNiJQdaD0WyeH1WHFO/oJyw00IHwyDmPJ0glqEFCCwOuvxRyLXFZnsPbBTwy2818PcJl2kVcqVPnPMgBkBCzXaPwDyWV9UlGzvWOw4boYw+OWlVT+0rtAegTqbKvx1slhTBNnKO9vdaddfmYQRaelAiAhUNMFjaqOM86mszSdTV92GrLDYqIelyz4JS9ROuk98un8BwcELEqRwwVPqTD8tuMN4gobl0zmIWrsGvh+eHik7fHIZcuwHleyuvly2zun4MHRHVI15erJFoGxxQKZQBwJ5IE5gwBVBQeu22dOhf5S4K9fbu8N+0ViuZIR1tPd//p6dtLr9U5uP9+pmcwrWxmwGWAZtCUCbAgcWlyhrIMsp2zB6ou00uv3X8oRuHJa1Kv4i1dXJv5ZaiGrRZIBZhY/FIs2iCTuAExwShP47WS9Tsj4SRC+lC1wGljc+3ooafmdxVR2Wshqq3MIAJhv+4i2c8RAshQJqiAAXF7fKVqy4Y06+ALRpI+u92IIuO0aMz4rbx75e/fERMJGC9lV4iEA3MiHDOodWglMgdseqqiZUFwrGvQhJsbtsY5NjptnX/425w2+P+1OLwoELLSQXRIIAiAMvkoKEWhFTjl51MsGpNXSrWn14m4D5Dixb7wzQPDu5w4y/OK0kIFDWmhnlwRSAIBdOhXa0Vp4NARQp0d0oRY6PI3oOOS8ccnF7t936siypx3h9oW1Ftr9bfeECgBw3kz53BQD4QXsmkoKmgBapcGnCXLeuuf0Yrf7+fe7+wcIw8PD9V9/5twvWC1ooTK6sKxDqgDEFQGA69d97VaUsM2z2g4R9cl95wDIvByEi9Onp5z1u530nnNa6EuJCOz+snzAMglYrVb8ipZJP85pgdYhwY9EA4FGPuhVPR48M9RcMpoIf0fTPbzFOuVMP7lTNFvEcZIG+Qkr0TFQ/yOQ69hEhEDpq81kwFQYgwf9ND+RSAoAq8IGjHz/G3txVyPcxIxWw0Ve/pEYIcB2ftNqFrjGEQcU7fw8zsBk3/K/2UkzskwP5PEzVWXkThO0Cw1oD0dw/T4P/QReomwLKFf+WyNQlhbdWdchZQCGcGkcWQ2acDOx+IW8XhKEypAxONXVtJgCmge82C4Wx2zBaU0UtWAtDMAlygy6Vt5kwyZgwjGjwmgheN9BmYFxqE7aIoC0UBn/L36XMp0nFAcUAHTh+CxqAjgA8JpskH97+JKCRSwDAIdgyUO6C4KoogkqZgACNNQAbvOABz+QRdcQAJDiZhUAJ/u1RU2XgYMm68MRZODq5ktZWcDSBUXfG71YHUJoQS+gU5gKANA4DQDS1TBYpaSDSgQAMcLovUIDja5qBgBlnsB2FQy7eD4RDg9RcAGlIJzv59DHhWBwIxbhXC3d7ECOqmzjfAiB3a6M/xeWLigFQMwFgQVNgDIA0Iw3QJe3B3gEiggAjILN24FCA4EmgxoBQEqG7a2E/CYkMnSlEjMUgfjKh0bTX9B7Z0/oIALl8Dw5pJDVbCjjfwEA4l/xNfHIKxcAZocAQI4StxoGLtBAu0BgAPjFMzDeY3vFQNEs2b4Kk0ujXBMIWLugkDQSwMY9UACwAHCGDq1paVQCIEJ8/B3RaAQBIFhd6Kaxa0ATHB7MF9oPb2oCAXsXFBLOhvYJrdtQ+9LJKBQAOFZRDKTg93YFAI07MwEAp9YJWYwt4SwCQBy7uABsWGBQankKchl1WBuBndOSSCkbGnXaRRGAAoDeXyHHsFTYjYAsN8LwFxMAUPTi/bwgmBOEa7SxFyRcDM7qIk+ITLBFxrDaRmIVBcDeBaWMEwMxxAv0glEA9vLriWET3/dRWzOkmI7yjOmHBgDwfjXydinQCERqxIFi9TW7rtUyvmpb6VUDwG01hpqKgG8VtmtmACIlDsCBmGT9Z2QgccbUtgGArnZiFnwKHQAo6IYSORkc9EEJOUzQqonAznFFqgoAjHLxa2UGAL7vElugYhCn32Zzn1QWUCoC6bAyAMJQAgDeQQfAsE0C69wfttp7pVV5O1X39//JsQKuAoD4vqa/6AEYqmxBs9KFQbooeoP/QR9hQ2oAAIqIN4uGEkV6AFCY4EXoLNuaddXd3JwFwHVFsAGABf2lQ76vuFWAzueB/rlYyYHOPKzEQACJcJiMsOJnUdIC0MWJv1SVTDM5VicrIuDmgkJSASiyOhSAqZLo7ChuKNkVQ9TIMH7wumieccj+wwMwo1cemQJaLQAI0hEyRPa1O6fZ/1URcHNBIakAoKgVfS8KwFCJ99VIuEXHnfPuKprLjqbjU/yklN2CSgBSKjx4qxQbdD0AqwFJ0fn2GlceyXQMBHZ/Wj8OJQUAVFnEtpOlIvaSdkm1AJAF7zwb2cgHmrxBc+DEkbkIANRQwauTxG+jUYF6AJBsgbZ2hyYjOVcnKyDgvh5SCsTwNqbEtWAAICdlwNiAZ6SrbMmQG+P3OXNBZn8y47zluYYnpGPhQBV9Ns0yQk4tFDoDAHQPFJfFfFcV+W+PgFMSiDIB5d/2lPCkdCAXZNCb7OHJ9t25cdcXPPMftPsTqD+ibLbGAhAzSJBSAhiiKR5QgAHAOakQ7w88RWoLOa4GAPAeHLY+KKGKrqg1AhdPTo+DSdOa2KZFQq4ggzgCvKS/QON1Qz1bWt2QtCaCcJ0AOnWDD1YXuLaSbPdwUiu6Dr7b6htCo71O1/GAhmFGALDB0e0eXEJR9Z217QSgylgmJR3d9kJqEjgAooRsKILLVhM1EibHzQfy3Ne24KxnBGT0YzAdFfaZjMKlbwHxW00AwHDR3gcldFd9Z1sbAXBLAtEvIrWne9zw2wQANi9muGdd596oa2JLTpO1sL0jmCMdVOQoVmw/CNCetkIAWDqflv3ReXRhQgQrkbo7jTTbzhyk6lvbWiDgUIfkaDjnadtZcha0P58vCvd/tUCbCgxGm0gXCRe02sZ49wEfrDsZKid/41gVpSG6jgeR3ue3KPTILCEnFreN8qdaaNI9sHPYc+57r7O580EBcKhDVqRotVwukSGWfSeZAnjksksm4HpAqlnBT/VnDyfwI4uKHlSP28OHyVTZFT2MgG0rXCM0pRUuG+rua8zdMNDS5QE4eqgBQDkCVVxQB5rMhbQ7LMsru4M9J+XOlLkJpowc1k46IeCeBHKhWe578rttwu2AX6rZExHciV2z/acN1eB/GQL2rXBVCC3XC1nUuUKOykuuQYWBcsUlBxUa5SwQqOaC2hOOwzrIqA7RHlO+fRqyecpAFR+UULXq5AEEdkeeCtfFSQOwTtM1Cm9fbMkLIpQ4qnpyHVfUhMDxXVC6/JHEqd76JWdQDNVOCRd6XzklZELAuQ5ZgTIuwAX+9kVngHT8PGSvboKiWjpIh4BzHbISrfYx3rClZE+f5yE0VKHG+bVcUQ0CF/9p7KuVU5RZ7BXzFuhDPSUkI3BsC/zPo6hJBC4uXvPuDK+VlG2zqyJwsfvP/+hQuJp09dF+v+EyBH7/Tw6lLKX/AhZ54eJAFUoKAAAAAElFTkSuQmCC;" vertex="1" parent="1">
          <mxGeometry x="776.03" y="190" width="87.94" height="30" as="geometry" />
        </mxCell>
        <mxCell id="brUmei9bkIKx1N2It68e-29" value="&lt;font size=&quot;1&quot;&gt;CONSUMER&lt;/font&gt;" style="text;html=1;align=center;verticalAlign=middle;whiteSpace=wrap;rounded=0;" vertex="1" parent="1">
          <mxGeometry x="770" y="150" width="100" height="30" as="geometry" />
        </mxCell>
        <mxCell id="brUmei9bkIKx1N2It68e-30" value="" style="shape=image;verticalLabelPosition=bottom;labelBackgroundColor=default;verticalAlign=top;aspect=fixed;imageAspect=0;image=data:image/png,iVBORw0KGgoAAAANSUhEUgAAAOEAAADhCAMAAAAJbSJIAAABXFBMVEUAAAD////fsotp1vT/gm7ToGzw0LTM0dn813Cqsr2pqal/YUHYpG/mt49xWkedd1H/6qdt3/6Ha1QIDxLFytLl5eXU2eEcOkI3ODq4k3P/3XP/iHOggGSwuMOZoKpER0wQISY5dIS3t7dYs8zxe2g+fpAwGBXIoH3fvmNgUiswJx6rkkxZRzhNnbP/4XWji0kwYm9jyueEcTvGqVhLPC+SSz9pbnXT09Py8vIoKCjk5OTDw8NbW1u/v7+MjIwSDwgnIRGOjo5SUlIeHh4vLy/l0pY2KyJoaGh4eHhFOx/uy2ojHBY1LRjaumGKf1qCaFHhw6nGq5RoWk5uXjFVSCbVuKBUKySbT0Ny6P+dkGdAOyq8rXv24qFRSjVoX0RNOieEcmOul4KQfWxdUEZ4aFqhi3g+IBu2XU7Ra1p5PjQhEQ5iMirccF8qVmIXLzYNGx8hQ0xzakvSwYqyo3Wzm1gHAAAPAUlEQVR4nO2d/XvTthbHQ+htQ3bdC4V2jRvWLXQkaXoTSMIS+pa+kTZJs46lAwqFlddSYOwC///zXL9IsmTL0rEbp3Hm7y+0WJb0sY6koyPZjV0adcUuugKBKyLkqV7LJDVlVpb7Xp3zqb6iVWvF9p9eCevJvesxS/ObtX5V79yqraJK7TFP3hvh2mrMofvrQ9GU9T2qTuvUBS+EyftOPkO7F89Yn2VrZF2BE9bc+AzDqAdQay+atVeIXAET7nHJiK7bO/hgtemoUAZfAhIu25+RU5sBVR6iaWd1tvE1GOGK7fbqm5NXb1532P9c7Xe962uZTAbUxUkT5kst/OMaugYizNAgr1/+No718NUidWXWNwtPa/PYOOR9fMtMuZErqsUKug33RAgh1YKdVxYegnxtXd06FxKj+hb16NZkiVG6ippIJIol1kwBhDWrqBM7n8HYJNd35bnBtLzNdIBNcWpE2EgYaqOb0EU5YZ34MJ0/OHy6XkGrAlWd9pt0JcXJz0dIzOV3Fz69GUlV+uPE0SZqalqUnLFStWD+ch1dlBImcRlv3AHHx/9oxNh8z6VazCGx/aMnst/WRppug71DRogfj6gFDUScbt2Zx/RKJrPixekh3m+vvAFqRDxbNMqFHr4BT/kyQuzKVMWAlKHaq5JEg8ZshlsAR/ipthJak6CRUdwTl52NTsAkhPjWBm8QZXWCku4xGdR2rDJngQ46NtK2Pm6oeV62rOocl5k8EQnhOkr/Ugo4Po4nDdoe19hiYeMQmn/zqkGIZnBBR6yzU4shy8GSEKL0Uhul7ZSyJ8eQAWpFRNgDEvIAZ63HLCbE7tpDCOF41Uy8Iygb5NgxVlpEQ4erlfIA6cchJtw1b2iCAMdf2hvKuaaRTN2ozihtL6FabqbbjVYfnMWz6BazkhMTolvewgjH7ZUhT7dHxvAdUXFYuKr7JWvwd7FvqwXv1y8tJzfXN5O2wVxIiM1FPpCaOjGTr9pu19sigYZE8byGRLwMSy7mzQDyJSTMeDJSYqbYr0EV3TfdRVQTwKzIcWm4ngQIUEyI5ooTKOFvqDhUGuqGJWNMLJbN3+QdkQvIRYQAigmR9wTthuPjyCWsMYQFc9SHEroAckZTa5ARAIoJUXAGNlfoQvPFCkN4WDTacANmpa6ADkRQC0oIkcfltix06neGEMcGSqom7F9KRhoLcB4Hv3bJfzGGCmtBGCF0KB0ff8MQknVJvlA4xD+L29AC3NJ+2VxfX8/UqTCR3oq1lRV9wwTYgsG2IT/GKnKhGUBLFCLKcidJPHoJYJ/74WuWkBPGjImWGBagLTKZ4WYEAhQTIt8CPpai2CJZQnCmbl0uluoKKECUAooJkUm8AhOiYq3RZJ1fL66lupioEFEOKCZETfAaCojXT84s7NpxDqlCQBdEACDML4USoqjiPJ3HMhns9+o0rt1SBSZqivesIMEf0NoCssLXhTYyNtlMpjPre3vrRiiK3qEzLbVe01QHAFpLscPeBv4R4saLCdHWAdBMcbxNEKuoW9N3bHb6Um3XDP1uWTboujOABvZGV1uogMJTIEJsGbAZEc2GsCyN5nLanesGFo6JmXsTPUlqMCH2SoTRYHsTctc5lujoGxwQE7bMpRha+c+7JocS4jAGaNLHm1CyaBNtqTYJNq8Q4aGxUEnkzN8gYR8JIR4AmnJAHKUBWI7LFCLcncNWagZRS/IbgIQkwC61U7z6BcVE+ZYqrC/2tI3wFGpCWYcAEZJRXOa64XgwbAuRstQ8juBIbA4/61ahUsZ3QI5HSPeeyPpAPClWcTLoDgyub05V25hR2Py28LkhUEHSFGQdJmjF38g2MGSG0oVXx+bQuA+52XkcBLTXIye0vA3XvvgQ7x7Ct7nRYNMr0gOHuFs5NphghQEa2hr5mvxJ44Qk2AHvEqJMy2aUqgAhtJ95mYcVBjFlagn02undvG1YlyF+oinkpm2YUSrUETclNzFRKujxHVBnpaMR1bd02ObhG7pQOCCprB6lInsT8n5FHvas7AQKEexMFLuQrb559fLhw5dvT35v0P+97emEIr6rV7EGf4DZ1df2dnd3vZxqBZ5rc/NCKAG7BRZn9d+30ziMoGcTpUf3IO4Frbozi2COG0MJ65JWnPVcPUdYYtNrDjDBCGuS06UGY9LjKVrb/mkwNgojrDmPKPG16a1sxiy8WjlYcsJlzkrcVVCnzZ71fHBH/qWEnL342Id3jx59fPTudsN56b6309DLyd3V1d1kkK80yFbA9oXco3unnxYWxsbm5sbGxhYW3j8++2BLIdqXuAiJCW2T1tl7DW2MkUa6cPqISbU9PC+Z6BIRMud0Yx/fz9noLMyFx7f998aAJSCs0Udxzj654ZmMY6fvhtRS3QnptcrZgpDP1CnVI/t+bt+/XAmpoMFtcftZumfd08dD7eeUGyHlUz2G4em2+sky1S3Tw6lPByy/+4eWiX6ANqC9GTVDnU6uigLcfdH21rp47OYTWovpR17w9GY8Jbfuuse2+6z7osGbS2jtv595BNQQ3w+Ki5bgxTIuIVkL3vNkoQjxE8eZC16unjuPkCyV/ADqiBdB6DpBcQjJPHHmC/DCEF0mKCchCS989Menie6K1z9/H6A+/00VxfeknIR4BLztG3DBKvTOrbuXrwWoy3dv/fwjKY0bjXQQkonik1/AuY84i7/uXrscuK5d/hmXt82b/h2E+L3GU5+dkLLRnwfAZzDewiVuAgjxMON1puc04aAAaUROI9oJsZfl20ZJL/xrYIAaIjZUTk+0EWJ/1N9MaAi7bXcHB6ghfnadMWyE2JvxzUeM9E7fmvAuT/ZE/0UVlxHigfSx/yYcQ/GMW/0CJH2M1mfH80MXnLtDLCGOPC34B8TdsG9GyiX8n4Pwe/OC0wNnCPHhcOyuzZnyQ/h3vwCBhNfuuA01DCE2UjSQzt07u6fpzFOLIsIf+9YNgYQ/gQiRkb5DlZ374MNmh5sQjaR4nJm7PWqEeGmPZ/s+E0IGfXfCxoapcxGi+NoHPLT0lZC4HYx+kjc1IswXDbXPRYi64dkACQG+KyZkjl36JETLilNc2dEjRKW+H3lCUtmRI8TzPfFhRo4QrZzeBUvYQLoIQjRZfAyWsGCO+gWGEK99GKEldP8Jz4IlLDHnLUWEd4IivBcRRoQRYUQ4yoRlcyapjDChSr+YFhFGhBFhRBgRRoQRYUQYEf6jCR/PESHCsTkPGnMQmmd7nvDjNE+Ma3zP27h2jR/Vf4JODNkJna8l6oSAV+88yyLEZQchWSnJwRByA6X90eeIMCI8hyLC/mhICIdnLJ1S4ueXEreXPRhhwrQBoUwFRxjPRoQRYUQYEfonVOwSEz4J8iUEp/DSxSehjpNKT01Wmx19C76zWF2aSqeyXExEGLs+YMV8EyrxbGpqif+yVnMynY3bKLPclAOTV0Kt6Q6q7tnp6iylszRkmAgVJTXZcc+LUjUdV8JHqMTTMDxTS1klXIRKfMpr3ogxJIRKetE9E1dNhodQmeTce1guFSrdtqZct1Io9fadSTpaMyLC7YkbA9XEL54Il2wVz5cqiWJRVc2QpR7u1L9BpnYrZTtmSsGEMxMD1YwXQoUBbJW7iSJBY6Vx5qy/k2IoGx9+QiVNVVjDc6GzKNvWnwXQnIAwEBL/ZaMgw8OQXfIN0hh6PtuDBZyY2YUTpnBdSzA+Q8Uu/vufVfSAbg6YcBZMiI200S2C+Qyh/thBnzL9YbCEE2QcABO2PALiP3LXRDPN6kA74swPiFCBE8ZabbiRavaMP+/YxPcP1Exn0Ft3VS+E2kDaBrajmihs4Jua2KnZGmAjzuAXJ9PeCPVPb6rShlSLudKGdcuigpdbewNDnLmCS8dOGZhQmzHKXdWdUtVnwxZzw6JCBuNBIVqAB4p3QqMlC7l2wo6pc7cr1t8JtQhJI8a2bgyAcWaCfIulEffRhvheze+udDVQzSg1Ms35LpR5vrdOSC8vdq/cmJgJUjdu7lkfXUsr/gmROvv7rVZrf0PwjR2NkMni+s5sgNqhvyk3qXhqQ78fCtIISQGDVZVa30IIf/36wkv2i0cP0A9K/GIQq1aEAkh49eqDo6fA3L981VKbPy7KbT0QTcZ9EGr6CoD88uxYT8oQxpWsJArZXzVSik9CTcfPfn3q1ikXX3z7itOxhFpGqabLXX1Xh4pm+iA0q//16MuLpyS82Fh8/uLXb18f0EmObYRxRclOVb1EJH2pUZ1M2fiAhM+vOnX8AOn42Hnxm53QgIxnbTowk/3yg0chz7Nqzy/rwAPPh885FAIdxTiE7mX/cvOKJ91Ey6OqOHtPhLHYEZzxGYmvBkR4JRBCfVKE4D34Rg24ISOMxZ4eSSCPn7GeQegINTW+PHvggseZLsNIaFBqk4M1hB5rg+qzoy9cZyCshIhz8elzXU8Fs1y4CSEKD2G5wkYnJGqUcqEjLKpdx9aSm/KFBD5jHiJCVY8SOvfPnOoV2noQJ5SERii0XXCGm4gOSxUcoworoRFVKya6hXK+RYVnNvYPe6VKTqV2Fl0J2ZNUaUzoUYQQcC4LRnio2oKHxWKinesayuXaiaItjIrfEXEQKuklWmjRuDPvUWhvqcNkNumCCJst8h4216yNGacZKQeuNn5uuXUJyS43uR+8gaiq1tTiOFkVJGHTFyF9EKOcA+xbsIF9Z2lDRxiP01GZw0KuKKDUBqFKj/bh0s6BZvgIra0VU/vlinG8xNF2qtotHLJBKk7XH0LCuJJ1xNY29Lmhjbi0f9rtSqHsdOsOOCUGSdjxSRhX7GeGcIb7h/leL59v8R2dhtNEdWVTwYkPCDq5l/IeBjzgRb0uRpDTl4rXw3uT2aHhg56g1Q/QQjegmlPD0366wKeglWwaAFmdyro6iBckDyfZ9aD1FH/YMbR4kI4PV/MZ8vg2gubCZ1PpyWaHbs7O4tJBOiVw7y9UPt4oMZcqZNzXdwuGFM5QoG8FDYUiwvArIgy/XAlHR3zC6uToqMolHEFFhOFXRBh+/eMIl/4zOlriEn7379HRdy6E/xoVRYThV0QYfkWE4VdEGH5FhOGXK+HoiE/453ejoz+5hCOoiDD8igjDr38OYS05qqpdYr46P6KKCMOv/wM6V0hYHxXOgAAAAABJRU5ErkJggg==;" vertex="1" parent="1">
          <mxGeometry x="783.75" y="272" width="72.5" height="72.5" as="geometry" />
        </mxCell>
      </root>
    </mxGraphModel>
  </diagram>
</mxfile>
